<mxfile host="65bd71144e">
    <diagram id="nKQMyj5D2cVVsMJy41xH" name="ページ1">
        <mxGraphModel dx="473" dy="430" grid="1" gridSize="10" guides="1" tooltips="1" connect="1" arrows="1" fold="1" page="1" pageScale="1" pageWidth="1169" pageHeight="827" math="0" shadow="0">
            <root>
                <mxCell id="0"/>
                <mxCell id="1" parent="0"/>
                <mxCell id="487" value="" style="whiteSpace=wrap;html=1;aspect=fixed;fontSize=26;" vertex="1" parent="1">
                    <mxGeometry x="1970" y="53" width="280" height="280" as="geometry"/>
                </mxCell>
                <mxCell id="502" value="" style="ellipse;whiteSpace=wrap;html=1;" vertex="1" parent="1">
                    <mxGeometry x="2060" y="97" width="100" height="50" as="geometry"/>
                </mxCell>
                <mxCell id="503" value="" style="ellipse;whiteSpace=wrap;html=1;" vertex="1" parent="1">
                    <mxGeometry x="2060" y="148" width="100" height="50" as="geometry"/>
                </mxCell>
                <mxCell id="501" value="" style="ellipse;whiteSpace=wrap;html=1;" vertex="1" parent="1">
                    <mxGeometry x="2061" y="198" width="100" height="50" as="geometry"/>
                </mxCell>
                <mxCell id="6" value="" style="whiteSpace=wrap;html=1;aspect=fixed;fontSize=26;" parent="1" vertex="1">
                    <mxGeometry x="400" y="520" width="280" height="280" as="geometry"/>
                </mxCell>
                <mxCell id="7" value="" style="whiteSpace=wrap;html=1;aspect=fixed;fontSize=26;" parent="1" vertex="1">
                    <mxGeometry x="400" y="40" width="280" height="280" as="geometry"/>
                </mxCell>
                <mxCell id="8" value="" style="whiteSpace=wrap;html=1;aspect=fixed;fontSize=26;" parent="1" vertex="1">
                    <mxGeometry x="1169" y="520" width="280" height="280" as="geometry"/>
                </mxCell>
                <mxCell id="9" value="" style="whiteSpace=wrap;html=1;aspect=fixed;fontSize=26;" parent="1" vertex="1">
                    <mxGeometry x="1169" y="40" width="280" height="280" as="geometry"/>
                </mxCell>
                <mxCell id="10" value="" style="whiteSpace=wrap;html=1;aspect=fixed;fontSize=26;" parent="1" vertex="1">
                    <mxGeometry x="790" y="520" width="280" height="280" as="geometry"/>
                </mxCell>
                <mxCell id="11" value="" style="whiteSpace=wrap;html=1;aspect=fixed;fontSize=26;" parent="1" vertex="1">
                    <mxGeometry x="790" y="40" width="280" height="280" as="geometry"/>
                </mxCell>
                <mxCell id="24" value="" style="rounded=0;whiteSpace=wrap;html=1;fontSize=26;" parent="1" vertex="1">
                    <mxGeometry x="400" y="40" width="280" height="40" as="geometry"/>
                </mxCell>
                <mxCell id="25" value="&lt;div&gt;&lt;span style=&quot;font-size: x-small&quot;&gt;logo&lt;/span&gt;&lt;/div&gt;" style="ellipse;whiteSpace=wrap;html=1;fontSize=40;align=center;" parent="1" vertex="1">
                    <mxGeometry x="400" y="40" width="50" height="40" as="geometry"/>
                </mxCell>
                <mxCell id="27" value="&lt;font style=&quot;font-size: 7px&quot;&gt;ログイン&lt;/font&gt;" style="rounded=1;whiteSpace=wrap;html=1;fontSize=15;" parent="1" vertex="1">
                    <mxGeometry x="590" y="50" width="40" height="20" as="geometry"/>
                </mxCell>
                <mxCell id="28" value="&lt;div&gt;&lt;span style=&quot;font-size: 7px&quot;&gt;アカウント&lt;/span&gt;&lt;/div&gt;&lt;font style=&quot;font-size: 7px ; line-height: 1&quot;&gt;&lt;div&gt;&lt;span&gt;登録&lt;/span&gt;&lt;/div&gt;&lt;/font&gt;" style="rounded=1;whiteSpace=wrap;html=1;fontSize=15;align=center;" parent="1" vertex="1">
                    <mxGeometry x="630" y="50" width="40" height="20" as="geometry"/>
                </mxCell>
                <mxCell id="29" value="" style="rounded=0;whiteSpace=wrap;html=1;fontSize=26;" parent="1" vertex="1">
                    <mxGeometry x="790" y="40" width="280" height="40" as="geometry"/>
                </mxCell>
                <mxCell id="30" value="&lt;div&gt;&lt;span style=&quot;font-size: x-small&quot;&gt;logo&lt;/span&gt;&lt;/div&gt;" style="ellipse;whiteSpace=wrap;html=1;fontSize=40;align=center;" parent="1" vertex="1">
                    <mxGeometry x="790" y="40" width="50" height="40" as="geometry"/>
                </mxCell>
                <mxCell id="40" value="&lt;font style=&quot;font-size: 10px&quot;&gt;© 2022 All Rights Reserved.&lt;/font&gt;" style="rounded=0;whiteSpace=wrap;html=1;fontSize=26;align=center;" parent="1" vertex="1">
                    <mxGeometry x="790" y="780" width="280" height="20" as="geometry"/>
                </mxCell>
                <mxCell id="41" value="&lt;font style=&quot;font-size: 10px&quot;&gt;© 2022 All Rights Reserved.&lt;/font&gt;" style="rounded=0;whiteSpace=wrap;html=1;fontSize=26;align=center;" parent="1" vertex="1">
                    <mxGeometry x="400" y="780" width="280" height="20" as="geometry"/>
                </mxCell>
                <mxCell id="42" value="&lt;font style=&quot;font-size: 10px&quot;&gt;© 2022 All Rights Reserved.&lt;/font&gt;" style="rounded=0;whiteSpace=wrap;html=1;fontSize=26;align=center;" parent="1" vertex="1">
                    <mxGeometry x="1169" y="780" width="280" height="20" as="geometry"/>
                </mxCell>
                <mxCell id="43" value="&lt;font style=&quot;font-size: 10px&quot;&gt;© 2022 All Rights Reserved.&lt;/font&gt;" style="rounded=0;whiteSpace=wrap;html=1;fontSize=26;align=center;" parent="1" vertex="1">
                    <mxGeometry x="1169" y="300" width="280" height="20" as="geometry"/>
                </mxCell>
                <mxCell id="44" value="&lt;font style=&quot;font-size: 10px&quot;&gt;© 2022 All Rights Reserved.&lt;/font&gt;" style="rounded=0;whiteSpace=wrap;html=1;fontSize=26;align=center;" parent="1" vertex="1">
                    <mxGeometry x="790" y="300" width="280" height="20" as="geometry"/>
                </mxCell>
                <mxCell id="45" value="&lt;font style=&quot;font-size: 10px&quot;&gt;© 2022 All Rights Reserved.&lt;/font&gt;" style="rounded=0;whiteSpace=wrap;html=1;fontSize=26;align=center;" parent="1" vertex="1">
                    <mxGeometry x="400" y="300" width="280" height="20" as="geometry"/>
                </mxCell>
                <mxCell id="53" value="&lt;div&gt;&lt;span style=&quot;font-size: x-small&quot;&gt;イラスト&lt;/span&gt;&lt;/div&gt;" style="ellipse;whiteSpace=wrap;html=1;fontSize=40;align=center;" parent="1" vertex="1">
                    <mxGeometry x="430" y="140" width="70" height="60" as="geometry"/>
                </mxCell>
                <mxCell id="54" value="" style="rounded=1;whiteSpace=wrap;html=1;fontSize=10;" parent="1" vertex="1">
                    <mxGeometry x="545" y="123" width="85" height="10" as="geometry"/>
                </mxCell>
                <mxCell id="55" value="" style="rounded=1;whiteSpace=wrap;html=1;fontSize=10;" parent="1" vertex="1">
                    <mxGeometry x="545" y="150" width="85" height="10" as="geometry"/>
                </mxCell>
                <mxCell id="56" value="" style="rounded=1;whiteSpace=wrap;html=1;fontSize=10;" parent="1" vertex="1">
                    <mxGeometry x="545" y="175" width="85" height="10" as="geometry"/>
                </mxCell>
                <mxCell id="57" value="" style="rounded=1;whiteSpace=wrap;html=1;fontSize=10;" parent="1" vertex="1">
                    <mxGeometry x="545" y="200" width="85" height="10" as="geometry"/>
                </mxCell>
                <mxCell id="58" value="社員番号" style="text;html=1;resizable=0;autosize=1;align=center;verticalAlign=middle;points=[];fillColor=none;strokeColor=none;rounded=0;fontSize=10;" parent="1" vertex="1">
                    <mxGeometry x="520" y="107" width="60" height="20" as="geometry"/>
                </mxCell>
                <mxCell id="59" value="メールアドレス" style="text;html=1;resizable=0;autosize=1;align=center;verticalAlign=middle;points=[];fillColor=none;strokeColor=none;rounded=0;fontSize=10;" parent="1" vertex="1">
                    <mxGeometry x="530" y="133" width="90" height="20" as="geometry"/>
                </mxCell>
                <mxCell id="60" value="パスワード" style="text;html=1;resizable=0;autosize=1;align=center;verticalAlign=middle;points=[];fillColor=none;strokeColor=none;rounded=0;fontSize=10;" parent="1" vertex="1">
                    <mxGeometry x="530" y="160" width="70" height="20" as="geometry"/>
                </mxCell>
                <mxCell id="61" value="パスワード（確認用）" style="text;html=1;resizable=0;autosize=1;align=center;verticalAlign=middle;points=[];fillColor=none;strokeColor=none;rounded=0;fontSize=10;" parent="1" vertex="1">
                    <mxGeometry x="530" y="185" width="120" height="20" as="geometry"/>
                </mxCell>
                <mxCell id="62" value="&lt;font style=&quot;font-size: 26px&quot;&gt;・アカウント登録画面&lt;/font&gt;" style="text;html=1;resizable=0;autosize=1;align=center;verticalAlign=middle;points=[];fillColor=none;strokeColor=none;rounded=0;" parent="1" vertex="1">
                    <mxGeometry x="400" y="10" width="280" height="20" as="geometry"/>
                </mxCell>
                <mxCell id="63" value="" style="whiteSpace=wrap;html=1;aspect=fixed;fontSize=26;" parent="1" vertex="1">
                    <mxGeometry x="1570" y="53" width="280" height="280" as="geometry"/>
                </mxCell>
                <mxCell id="123" value="&lt;font style=&quot;font-size: 7px&quot;&gt;ログイン&lt;/font&gt;" style="rounded=1;whiteSpace=wrap;html=1;fontSize=15;" parent="1" vertex="1">
                    <mxGeometry x="980" y="50" width="40" height="20" as="geometry"/>
                </mxCell>
                <mxCell id="124" value="&lt;div&gt;&lt;span style=&quot;font-size: 7px&quot;&gt;アカウント&lt;/span&gt;&lt;/div&gt;&lt;font style=&quot;font-size: 7px ; line-height: 1&quot;&gt;&lt;div&gt;&lt;span&gt;登録&lt;/span&gt;&lt;/div&gt;&lt;/font&gt;" style="rounded=1;whiteSpace=wrap;html=1;fontSize=15;align=center;" parent="1" vertex="1">
                    <mxGeometry x="1020" y="50" width="40" height="20" as="geometry"/>
                </mxCell>
                <mxCell id="125" value="&lt;font style=&quot;font-size: 26px&quot;&gt;・ログイン画面&lt;/font&gt;" style="text;html=1;resizable=0;autosize=1;align=center;verticalAlign=middle;points=[];fillColor=none;strokeColor=none;rounded=0;" parent="1" vertex="1">
                    <mxGeometry x="830" y="10" width="200" height="20" as="geometry"/>
                </mxCell>
                <mxCell id="131" value="&lt;font size=&quot;1&quot;&gt;イラスト&lt;/font&gt;" style="ellipse;whiteSpace=wrap;html=1;fontSize=40;align=center;" parent="1" vertex="1">
                    <mxGeometry x="820" y="141" width="70" height="60" as="geometry"/>
                </mxCell>
                <mxCell id="132" value="" style="rounded=1;whiteSpace=wrap;html=1;fontSize=10;" parent="1" vertex="1">
                    <mxGeometry x="935" y="151" width="85" height="10" as="geometry"/>
                </mxCell>
                <mxCell id="133" value="メールアドレス" style="text;html=1;resizable=0;autosize=1;align=center;verticalAlign=middle;points=[];fillColor=none;strokeColor=none;rounded=0;fontSize=10;" parent="1" vertex="1">
                    <mxGeometry x="920" y="134" width="90" height="20" as="geometry"/>
                </mxCell>
                <mxCell id="134" value="パスワード" style="text;html=1;resizable=0;autosize=1;align=center;verticalAlign=middle;points=[];fillColor=none;strokeColor=none;rounded=0;fontSize=10;" parent="1" vertex="1">
                    <mxGeometry x="920" y="161" width="70" height="20" as="geometry"/>
                </mxCell>
                <mxCell id="136" value="" style="rounded=1;whiteSpace=wrap;html=1;fontSize=10;" parent="1" vertex="1">
                    <mxGeometry x="935" y="178" width="85" height="10" as="geometry"/>
                </mxCell>
                <mxCell id="137" value="sign up" style="rounded=1;whiteSpace=wrap;html=1;fontSize=7;" parent="1" vertex="1">
                    <mxGeometry x="570" y="220" width="30" height="20" as="geometry"/>
                </mxCell>
                <mxCell id="138" value="log in" style="rounded=1;whiteSpace=wrap;html=1;fontSize=7;" parent="1" vertex="1">
                    <mxGeometry x="962.5" y="195" width="30" height="20" as="geometry"/>
                </mxCell>
                <mxCell id="139" value="パスワードをお忘れですか？" style="text;html=1;resizable=0;autosize=1;align=center;verticalAlign=middle;points=[];fillColor=none;strokeColor=none;rounded=0;fontSize=7;fontStyle=4" parent="1" vertex="1">
                    <mxGeometry x="920" y="220" width="110" height="10" as="geometry"/>
                </mxCell>
                <mxCell id="166" value="&lt;span style=&quot;font-size: 26px&quot;&gt;・TOP画面&lt;br&gt;（勤怠入力・一覧画面）&lt;br&gt;&lt;/span&gt;" style="text;html=1;resizable=0;autosize=1;align=center;verticalAlign=middle;points=[];fillColor=none;strokeColor=none;rounded=0;" parent="1" vertex="1">
                    <mxGeometry x="380" y="470" width="300" height="40" as="geometry"/>
                </mxCell>
                <mxCell id="263" value="&lt;span style=&quot;font-size: 26px&quot;&gt;・修正画面&lt;/span&gt;" style="text;html=1;resizable=0;autosize=1;align=center;verticalAlign=middle;points=[];fillColor=none;strokeColor=none;rounded=0;" parent="1" vertex="1">
                    <mxGeometry x="845" y="490" width="150" height="20" as="geometry"/>
                </mxCell>
                <mxCell id="264" value="修正" style="ellipse;whiteSpace=wrap;html=1;aspect=fixed;fontSize=7;" parent="1" vertex="1">
                    <mxGeometry x="885" y="730" width="40" height="40" as="geometry"/>
                </mxCell>
                <mxCell id="270" value="8:55" style="rounded=1;whiteSpace=wrap;html=1;fontSize=7;" parent="1" vertex="1">
                    <mxGeometry x="860" y="605" width="120" height="25" as="geometry"/>
                </mxCell>
                <mxCell id="271" value="戻る" style="ellipse;whiteSpace=wrap;html=1;aspect=fixed;fontSize=7;" parent="1" vertex="1">
                    <mxGeometry x="935" y="730" width="40" height="40" as="geometry"/>
                </mxCell>
                <mxCell id="272" value="&lt;span style=&quot;font-size: 26px&quot;&gt;・有給申請/承認画面&lt;br&gt;(Superuser)&lt;br&gt;&lt;/span&gt;" style="text;html=1;resizable=0;autosize=1;align=center;verticalAlign=middle;points=[];fillColor=none;strokeColor=none;rounded=0;" parent="1" vertex="1">
                    <mxGeometry x="1179" y="470" width="260" height="40" as="geometry"/>
                </mxCell>
                <mxCell id="279" value="" style="rounded=1;whiteSpace=wrap;html=1;fontSize=4;" parent="1" vertex="1">
                    <mxGeometry x="1220" y="580" width="120" height="25" as="geometry"/>
                </mxCell>
                <mxCell id="282" value="&lt;font style=&quot;font-size: 7px&quot;&gt;申請&lt;/font&gt;" style="ellipse;whiteSpace=wrap;html=1;aspect=fixed;fontSize=4;" parent="1" vertex="1">
                    <mxGeometry x="1395" y="575" width="30" height="30" as="geometry"/>
                </mxCell>
                <mxCell id="283" value="有給申請日" style="text;html=1;resizable=0;autosize=1;align=center;verticalAlign=middle;points=[];fillColor=none;strokeColor=none;rounded=0;fontSize=7;" parent="1" vertex="1">
                    <mxGeometry x="1170" y="580" width="50" height="10" as="geometry"/>
                </mxCell>
                <mxCell id="286" value="&lt;font style=&quot;font-size: 26px&quot;&gt;・アカウント詳細画面&lt;/font&gt;" style="text;html=1;resizable=0;autosize=1;align=center;verticalAlign=middle;points=[];fillColor=none;strokeColor=none;rounded=0;" parent="1" vertex="1">
                    <mxGeometry x="1160" y="10" width="280" height="20" as="geometry"/>
                </mxCell>
                <mxCell id="287" value="&lt;font style=&quot;font-size: 26px&quot;&gt;・アカウント編集画面&lt;/font&gt;" style="text;html=1;resizable=0;autosize=1;align=center;verticalAlign=middle;points=[];fillColor=none;strokeColor=none;rounded=0;" parent="1" vertex="1">
                    <mxGeometry x="1565" y="10" width="280" height="20" as="geometry"/>
                </mxCell>
                <mxCell id="288" value="編集" style="ellipse;whiteSpace=wrap;html=1;aspect=fixed;fontSize=7;" parent="1" vertex="1">
                    <mxGeometry x="1250" y="178" width="30" height="30" as="geometry"/>
                </mxCell>
                <mxCell id="289" value="退会" style="ellipse;whiteSpace=wrap;html=1;aspect=fixed;fontSize=7;" parent="1" vertex="1">
                    <mxGeometry x="1315" y="178" width="30" height="30" as="geometry"/>
                </mxCell>
                <mxCell id="290" value="" style="rounded=1;whiteSpace=wrap;html=1;fontSize=10;" parent="1" vertex="1">
                    <mxGeometry x="1255" y="113" width="85" height="10" as="geometry"/>
                </mxCell>
                <mxCell id="291" value="" style="rounded=1;whiteSpace=wrap;html=1;fontSize=10;" parent="1" vertex="1">
                    <mxGeometry x="1255" y="140" width="85" height="10" as="geometry"/>
                </mxCell>
                <mxCell id="293" value="名前" style="text;html=1;resizable=0;autosize=1;align=center;verticalAlign=middle;points=[];fillColor=none;strokeColor=none;rounded=0;fontSize=10;" parent="1" vertex="1">
                    <mxGeometry x="1240" y="97" width="40" height="20" as="geometry"/>
                </mxCell>
                <mxCell id="294" value="社員番号" style="text;html=1;resizable=0;autosize=1;align=center;verticalAlign=middle;points=[];fillColor=none;strokeColor=none;rounded=0;fontSize=10;" parent="1" vertex="1">
                    <mxGeometry x="1255" y="123" width="60" height="20" as="geometry"/>
                </mxCell>
                <mxCell id="297" value="アカウント情報" style="text;html=1;resizable=0;autosize=1;align=center;verticalAlign=middle;points=[];fillColor=none;strokeColor=none;rounded=0;fontSize=10;" parent="1" vertex="1">
                    <mxGeometry x="1250" y="87" width="90" height="20" as="geometry"/>
                </mxCell>
                <mxCell id="309" value="更新" style="ellipse;whiteSpace=wrap;html=1;aspect=fixed;fontSize=7;" parent="1" vertex="1">
                    <mxGeometry x="1665" y="250" width="30" height="30" as="geometry"/>
                </mxCell>
                <mxCell id="310" value="戻る" style="ellipse;whiteSpace=wrap;html=1;aspect=fixed;fontSize=7;" parent="1" vertex="1">
                    <mxGeometry x="1724" y="250" width="30" height="30" as="geometry"/>
                </mxCell>
                <mxCell id="311" value="" style="rounded=1;whiteSpace=wrap;html=1;fontSize=10;" parent="1" vertex="1">
                    <mxGeometry x="1665" y="127" width="85" height="10" as="geometry"/>
                </mxCell>
                <mxCell id="312" value="" style="rounded=1;whiteSpace=wrap;html=1;fontSize=10;" parent="1" vertex="1">
                    <mxGeometry x="1665" y="153" width="85" height="10" as="geometry"/>
                </mxCell>
                <mxCell id="313" value="" style="rounded=1;whiteSpace=wrap;html=1;fontSize=10;" parent="1" vertex="1">
                    <mxGeometry x="1665" y="178" width="85" height="10" as="geometry"/>
                </mxCell>
                <mxCell id="314" value="社員番号" style="text;html=1;resizable=0;autosize=1;align=center;verticalAlign=middle;points=[];fillColor=none;strokeColor=none;rounded=0;fontSize=10;" parent="1" vertex="1">
                    <mxGeometry x="1640" y="111" width="60" height="20" as="geometry"/>
                </mxCell>
                <mxCell id="315" value="メールアドレス" style="text;html=1;resizable=0;autosize=1;align=center;verticalAlign=middle;points=[];fillColor=none;strokeColor=none;rounded=0;fontSize=10;" parent="1" vertex="1">
                    <mxGeometry x="1650" y="136" width="90" height="20" as="geometry"/>
                </mxCell>
                <mxCell id="316" value="パスワード" style="text;html=1;resizable=0;autosize=1;align=center;verticalAlign=middle;points=[];fillColor=none;strokeColor=none;rounded=0;fontSize=10;" parent="1" vertex="1">
                    <mxGeometry x="1650" y="163" width="70" height="20" as="geometry"/>
                </mxCell>
                <mxCell id="317" value="パスワード（確認用）" style="text;html=1;resizable=0;autosize=1;align=center;verticalAlign=middle;points=[];fillColor=none;strokeColor=none;rounded=0;fontSize=10;" parent="1" vertex="1">
                    <mxGeometry x="1650" y="188" width="120" height="20" as="geometry"/>
                </mxCell>
                <mxCell id="318" value="アカウント編集" style="text;html=1;resizable=0;autosize=1;align=center;verticalAlign=middle;points=[];fillColor=none;strokeColor=none;rounded=0;fontSize=10;" parent="1" vertex="1">
                    <mxGeometry x="1660" y="79" width="90" height="20" as="geometry"/>
                </mxCell>
                <mxCell id="319" value="" style="rounded=1;whiteSpace=wrap;html=1;fontSize=10;" parent="1" vertex="1">
                    <mxGeometry x="1665" y="208" width="85" height="10" as="geometry"/>
                </mxCell>
                <mxCell id="322" value="現在のパスワード" style="text;html=1;resizable=0;autosize=1;align=center;verticalAlign=middle;points=[];fillColor=none;strokeColor=none;rounded=0;fontSize=10;" parent="1" vertex="1">
                    <mxGeometry x="1650" y="218" width="100" height="20" as="geometry"/>
                </mxCell>
                <mxCell id="323" value="" style="rounded=1;whiteSpace=wrap;html=1;fontSize=10;" parent="1" vertex="1">
                    <mxGeometry x="1665" y="238" width="85" height="10" as="geometry"/>
                </mxCell>
                <mxCell id="324" value="&lt;font style=&quot;font-size: 10px&quot;&gt;© 2022 All Rights Reserved.&lt;/font&gt;" style="rounded=0;whiteSpace=wrap;html=1;fontSize=26;align=center;" parent="1" vertex="1">
                    <mxGeometry x="1570" y="300" width="280" height="20" as="geometry"/>
                </mxCell>
                <mxCell id="326" value="" style="rounded=1;whiteSpace=wrap;html=1;fontSize=10;" parent="1" vertex="1">
                    <mxGeometry x="545" y="97" width="85" height="10" as="geometry"/>
                </mxCell>
                <mxCell id="327" value="名前" style="text;html=1;resizable=0;autosize=1;align=center;verticalAlign=middle;points=[];fillColor=none;strokeColor=none;rounded=0;fontSize=10;" parent="1" vertex="1">
                    <mxGeometry x="530" y="81" width="40" height="20" as="geometry"/>
                </mxCell>
                <mxCell id="329" value="" style="group" parent="1" vertex="1" connectable="0">
                    <mxGeometry x="1170" y="40" width="280" height="40" as="geometry"/>
                </mxCell>
                <mxCell id="143" value="" style="rounded=0;whiteSpace=wrap;html=1;fontSize=26;" parent="329" vertex="1">
                    <mxGeometry width="280" height="40" as="geometry"/>
                </mxCell>
                <mxCell id="144" value="&lt;div&gt;&lt;span style=&quot;font-size: x-small&quot;&gt;logo&lt;/span&gt;&lt;/div&gt;" style="ellipse;whiteSpace=wrap;html=1;fontSize=40;align=center;" parent="329" vertex="1">
                    <mxGeometry width="50" height="40" as="geometry"/>
                </mxCell>
                <mxCell id="145" value="&lt;font style=&quot;font-size: 7px&quot;&gt;申請・承認&lt;/font&gt;" style="rounded=1;whiteSpace=wrap;html=1;fontSize=15;" parent="329" vertex="1">
                    <mxGeometry x="150" y="10" width="40" height="20" as="geometry"/>
                </mxCell>
                <mxCell id="146" value="&lt;font style=&quot;font-size: 7px&quot;&gt;アカウント&lt;/font&gt;" style="rounded=1;whiteSpace=wrap;html=1;fontSize=15;" parent="329" vertex="1">
                    <mxGeometry x="190" y="10" width="40" height="20" as="geometry"/>
                </mxCell>
                <mxCell id="147" value="&lt;font style=&quot;font-size: 7px&quot;&gt;ログアウト&lt;/font&gt;" style="rounded=1;whiteSpace=wrap;html=1;fontSize=15;" parent="329" vertex="1">
                    <mxGeometry x="230" y="10" width="40" height="20" as="geometry"/>
                </mxCell>
                <mxCell id="149" value="&lt;font style=&quot;font-size: 6px&quot;&gt;TOP&lt;/font&gt;" style="rounded=1;whiteSpace=wrap;html=1;fontSize=15;" parent="329" vertex="1">
                    <mxGeometry x="110" y="10" width="40" height="20" as="geometry"/>
                </mxCell>
                <mxCell id="330" value="" style="group" parent="1" vertex="1" connectable="0">
                    <mxGeometry x="1570" y="40" width="280" height="40" as="geometry"/>
                </mxCell>
                <mxCell id="331" value="" style="rounded=0;whiteSpace=wrap;html=1;fontSize=26;" parent="330" vertex="1">
                    <mxGeometry width="280" height="40" as="geometry"/>
                </mxCell>
                <mxCell id="332" value="&lt;div&gt;&lt;span style=&quot;font-size: x-small&quot;&gt;logo&lt;/span&gt;&lt;/div&gt;" style="ellipse;whiteSpace=wrap;html=1;fontSize=40;align=center;" parent="330" vertex="1">
                    <mxGeometry width="50" height="40" as="geometry"/>
                </mxCell>
                <mxCell id="333" value="&lt;font style=&quot;font-size: 7px&quot;&gt;申請・承認&lt;/font&gt;" style="rounded=1;whiteSpace=wrap;html=1;fontSize=15;" parent="330" vertex="1">
                    <mxGeometry x="150" y="10" width="40" height="20" as="geometry"/>
                </mxCell>
                <mxCell id="334" value="&lt;font style=&quot;font-size: 7px&quot;&gt;アカウント&lt;/font&gt;" style="rounded=1;whiteSpace=wrap;html=1;fontSize=15;" parent="330" vertex="1">
                    <mxGeometry x="190" y="10" width="40" height="20" as="geometry"/>
                </mxCell>
                <mxCell id="335" value="&lt;font style=&quot;font-size: 7px&quot;&gt;ログアウト&lt;/font&gt;" style="rounded=1;whiteSpace=wrap;html=1;fontSize=15;" parent="330" vertex="1">
                    <mxGeometry x="230" y="10" width="40" height="20" as="geometry"/>
                </mxCell>
                <mxCell id="336" value="&lt;font style=&quot;font-size: 6px&quot;&gt;TOP&lt;/font&gt;" style="rounded=1;whiteSpace=wrap;html=1;fontSize=15;" parent="330" vertex="1">
                    <mxGeometry x="110" y="10" width="40" height="20" as="geometry"/>
                </mxCell>
                <mxCell id="337" value="" style="group" parent="1" vertex="1" connectable="0">
                    <mxGeometry x="1169" y="520" width="280" height="40" as="geometry"/>
                </mxCell>
                <mxCell id="338" value="" style="rounded=0;whiteSpace=wrap;html=1;fontSize=26;" parent="337" vertex="1">
                    <mxGeometry width="280" height="40" as="geometry"/>
                </mxCell>
                <mxCell id="339" value="&lt;div&gt;&lt;span style=&quot;font-size: x-small&quot;&gt;logo&lt;/span&gt;&lt;/div&gt;" style="ellipse;whiteSpace=wrap;html=1;fontSize=40;align=center;" parent="337" vertex="1">
                    <mxGeometry width="50" height="40" as="geometry"/>
                </mxCell>
                <mxCell id="340" value="&lt;font style=&quot;font-size: 7px&quot;&gt;申請・承認&lt;/font&gt;" style="rounded=1;whiteSpace=wrap;html=1;fontSize=15;" parent="337" vertex="1">
                    <mxGeometry x="150" y="10" width="40" height="20" as="geometry"/>
                </mxCell>
                <mxCell id="341" value="&lt;font style=&quot;font-size: 7px&quot;&gt;アカウント&lt;/font&gt;" style="rounded=1;whiteSpace=wrap;html=1;fontSize=15;" parent="337" vertex="1">
                    <mxGeometry x="190" y="10" width="40" height="20" as="geometry"/>
                </mxCell>
                <mxCell id="342" value="&lt;font style=&quot;font-size: 7px&quot;&gt;ログアウト&lt;/font&gt;" style="rounded=1;whiteSpace=wrap;html=1;fontSize=15;" parent="337" vertex="1">
                    <mxGeometry x="230" y="10" width="40" height="20" as="geometry"/>
                </mxCell>
                <mxCell id="343" value="&lt;font style=&quot;font-size: 6px&quot;&gt;TOP&lt;/font&gt;" style="rounded=1;whiteSpace=wrap;html=1;fontSize=15;" parent="337" vertex="1">
                    <mxGeometry x="110" y="10" width="40" height="20" as="geometry"/>
                </mxCell>
                <mxCell id="344" value="" style="group" parent="1" vertex="1" connectable="0">
                    <mxGeometry x="790" y="520" width="280" height="40" as="geometry"/>
                </mxCell>
                <mxCell id="345" value="" style="rounded=0;whiteSpace=wrap;html=1;fontSize=26;" parent="344" vertex="1">
                    <mxGeometry width="280" height="40" as="geometry"/>
                </mxCell>
                <mxCell id="346" value="&lt;div&gt;&lt;span style=&quot;font-size: x-small&quot;&gt;logo&lt;/span&gt;&lt;/div&gt;" style="ellipse;whiteSpace=wrap;html=1;fontSize=40;align=center;" parent="344" vertex="1">
                    <mxGeometry width="50" height="40" as="geometry"/>
                </mxCell>
                <mxCell id="347" value="&lt;font style=&quot;font-size: 7px&quot;&gt;申請・承認&lt;/font&gt;" style="rounded=1;whiteSpace=wrap;html=1;fontSize=15;" parent="344" vertex="1">
                    <mxGeometry x="150" y="10" width="40" height="20" as="geometry"/>
                </mxCell>
                <mxCell id="348" value="&lt;font style=&quot;font-size: 7px&quot;&gt;アカウント&lt;/font&gt;" style="rounded=1;whiteSpace=wrap;html=1;fontSize=15;" parent="344" vertex="1">
                    <mxGeometry x="190" y="10" width="40" height="20" as="geometry"/>
                </mxCell>
                <mxCell id="349" value="&lt;font style=&quot;font-size: 7px&quot;&gt;ログアウト&lt;/font&gt;" style="rounded=1;whiteSpace=wrap;html=1;fontSize=15;" parent="344" vertex="1">
                    <mxGeometry x="230" y="10" width="40" height="20" as="geometry"/>
                </mxCell>
                <mxCell id="350" value="&lt;font style=&quot;font-size: 6px&quot;&gt;TOP&lt;/font&gt;" style="rounded=1;whiteSpace=wrap;html=1;fontSize=15;" parent="344" vertex="1">
                    <mxGeometry x="110" y="10" width="40" height="20" as="geometry"/>
                </mxCell>
                <mxCell id="351" value="" style="group" parent="1" vertex="1" connectable="0">
                    <mxGeometry x="400" y="520" width="280" height="40" as="geometry"/>
                </mxCell>
                <mxCell id="352" value="" style="rounded=0;whiteSpace=wrap;html=1;fontSize=26;" parent="351" vertex="1">
                    <mxGeometry width="280" height="40" as="geometry"/>
                </mxCell>
                <mxCell id="353" value="&lt;div&gt;&lt;span style=&quot;font-size: x-small&quot;&gt;logo&lt;/span&gt;&lt;/div&gt;" style="ellipse;whiteSpace=wrap;html=1;fontSize=40;align=center;" parent="351" vertex="1">
                    <mxGeometry width="50" height="40" as="geometry"/>
                </mxCell>
                <mxCell id="354" value="&lt;font style=&quot;font-size: 7px&quot;&gt;申請・承認&lt;/font&gt;" style="rounded=1;whiteSpace=wrap;html=1;fontSize=15;" parent="351" vertex="1">
                    <mxGeometry x="150" y="10" width="40" height="20" as="geometry"/>
                </mxCell>
                <mxCell id="355" value="&lt;font style=&quot;font-size: 7px&quot;&gt;アカウント&lt;/font&gt;" style="rounded=1;whiteSpace=wrap;html=1;fontSize=15;" parent="351" vertex="1">
                    <mxGeometry x="190" y="10" width="40" height="20" as="geometry"/>
                </mxCell>
                <mxCell id="356" value="&lt;font style=&quot;font-size: 7px&quot;&gt;ログアウト&lt;/font&gt;" style="rounded=1;whiteSpace=wrap;html=1;fontSize=15;" parent="351" vertex="1">
                    <mxGeometry x="230" y="10" width="40" height="20" as="geometry"/>
                </mxCell>
                <mxCell id="357" value="&lt;font style=&quot;font-size: 6px&quot;&gt;TOP&lt;/font&gt;" style="rounded=1;whiteSpace=wrap;html=1;fontSize=15;" parent="351" vertex="1">
                    <mxGeometry x="110" y="10" width="40" height="20" as="geometry"/>
                </mxCell>
                <mxCell id="361" value="" style="rounded=1;whiteSpace=wrap;html=1;fontSize=10;" parent="1" vertex="1">
                    <mxGeometry x="1255" y="163.5" width="85" height="10" as="geometry"/>
                </mxCell>
                <mxCell id="362" value="メールアドレス" style="text;html=1;resizable=0;autosize=1;align=center;verticalAlign=middle;points=[];fillColor=none;strokeColor=none;rounded=0;fontSize=10;" parent="1" vertex="1">
                    <mxGeometry x="1240" y="146.5" width="90" height="20" as="geometry"/>
                </mxCell>
                <mxCell id="363" value="" style="rounded=1;whiteSpace=wrap;html=1;fontSize=10;" parent="1" vertex="1">
                    <mxGeometry x="1665" y="105" width="85" height="10" as="geometry"/>
                </mxCell>
                <mxCell id="364" value="名前" style="text;html=1;resizable=0;autosize=1;align=center;verticalAlign=middle;points=[];fillColor=none;strokeColor=none;rounded=0;fontSize=10;" parent="1" vertex="1">
                    <mxGeometry x="1650" y="89" width="40" height="20" as="geometry"/>
                </mxCell>
                <mxCell id="388" value="4月" style="shape=table;startSize=30;container=1;collapsible=0;childLayout=tableLayout;fontStyle=1;align=center;pointerEvents=1;fontSize=7;" parent="1" vertex="1">
                    <mxGeometry x="405" y="637" width="270" height="140" as="geometry"/>
                </mxCell>
                <mxCell id="389" value="" style="shape=partialRectangle;html=1;whiteSpace=wrap;collapsible=0;dropTarget=0;pointerEvents=0;fillColor=none;top=0;left=0;bottom=0;right=0;points=[[0,0.5],[1,0.5]];portConstraint=eastwest;fontSize=7;" parent="388" vertex="1">
                    <mxGeometry y="30" width="270" height="28" as="geometry"/>
                </mxCell>
                <mxCell id="405" value="" style="shape=partialRectangle;html=1;whiteSpace=wrap;connectable=0;fillColor=none;top=0;left=0;bottom=0;right=0;overflow=hidden;pointerEvents=1;fontSize=7;" parent="389" vertex="1">
                    <mxGeometry width="20" height="28" as="geometry">
                        <mxRectangle width="20" height="28" as="alternateBounds"/>
                    </mxGeometry>
                </mxCell>
                <mxCell id="390" value="出勤" style="shape=partialRectangle;html=1;whiteSpace=wrap;connectable=0;fillColor=none;top=0;left=0;bottom=0;right=0;overflow=hidden;pointerEvents=1;fontSize=7;" parent="389" vertex="1">
                    <mxGeometry x="20" width="25" height="28" as="geometry">
                        <mxRectangle width="25" height="28" as="alternateBounds"/>
                    </mxGeometry>
                </mxCell>
                <mxCell id="411" value="退勤" style="shape=partialRectangle;html=1;whiteSpace=wrap;connectable=0;fillColor=none;top=0;left=0;bottom=0;right=0;overflow=hidden;pointerEvents=1;fontSize=7;" parent="389" vertex="1">
                    <mxGeometry x="45" width="30" height="28" as="geometry">
                        <mxRectangle width="30" height="28" as="alternateBounds"/>
                    </mxGeometry>
                </mxCell>
                <mxCell id="391" value="ログオン" style="shape=partialRectangle;html=1;whiteSpace=wrap;connectable=0;fillColor=none;top=0;left=0;bottom=0;right=0;overflow=hidden;pointerEvents=1;fontSize=7;" parent="389" vertex="1">
                    <mxGeometry x="75" width="30" height="28" as="geometry">
                        <mxRectangle width="30" height="28" as="alternateBounds"/>
                    </mxGeometry>
                </mxCell>
                <mxCell id="423" value="ログオフ" style="shape=partialRectangle;html=1;whiteSpace=wrap;connectable=0;fillColor=none;top=0;left=0;bottom=0;right=0;overflow=hidden;pointerEvents=1;fontSize=7;" parent="389" vertex="1">
                    <mxGeometry x="105" width="30" height="28" as="geometry">
                        <mxRectangle width="30" height="28" as="alternateBounds"/>
                    </mxGeometry>
                </mxCell>
                <mxCell id="419" value="残業" style="shape=partialRectangle;html=1;whiteSpace=wrap;connectable=0;fillColor=none;top=0;left=0;bottom=0;right=0;overflow=hidden;pointerEvents=1;fontSize=7;" parent="389" vertex="1">
                    <mxGeometry x="135" width="58" height="28" as="geometry">
                        <mxRectangle width="58" height="28" as="alternateBounds"/>
                    </mxGeometry>
                </mxCell>
                <mxCell id="415" value="（深夜残業）" style="shape=partialRectangle;html=1;whiteSpace=wrap;connectable=0;fillColor=none;top=0;left=0;bottom=0;right=0;overflow=hidden;pointerEvents=1;fontSize=7;" parent="389" vertex="1">
                    <mxGeometry x="193" width="57" height="28" as="geometry">
                        <mxRectangle width="57" height="28" as="alternateBounds"/>
                    </mxGeometry>
                </mxCell>
                <mxCell id="392" value="" style="shape=partialRectangle;html=1;whiteSpace=wrap;connectable=0;fillColor=none;top=0;left=0;bottom=0;right=0;overflow=hidden;pointerEvents=1;fontSize=7;" parent="389" vertex="1">
                    <mxGeometry x="250" width="20" height="28" as="geometry">
                        <mxRectangle width="20" height="28" as="alternateBounds"/>
                    </mxGeometry>
                </mxCell>
                <mxCell id="401" style="shape=partialRectangle;html=1;whiteSpace=wrap;collapsible=0;dropTarget=0;pointerEvents=0;fillColor=none;top=0;left=0;bottom=0;right=0;points=[[0,0.5],[1,0.5]];portConstraint=eastwest;fontSize=7;" parent="388" vertex="1">
                    <mxGeometry y="58" width="270" height="27" as="geometry"/>
                </mxCell>
                <mxCell id="406" value="1日" style="shape=partialRectangle;html=1;whiteSpace=wrap;connectable=0;fillColor=none;top=0;left=0;bottom=0;right=0;overflow=hidden;pointerEvents=1;fontSize=7;" parent="401" vertex="1">
                    <mxGeometry width="20" height="27" as="geometry">
                        <mxRectangle width="20" height="27" as="alternateBounds"/>
                    </mxGeometry>
                </mxCell>
                <mxCell id="402" value="8:52" style="shape=partialRectangle;html=1;whiteSpace=wrap;connectable=0;fillColor=none;top=0;left=0;bottom=0;right=0;overflow=hidden;pointerEvents=1;fontSize=7;" parent="401" vertex="1">
                    <mxGeometry x="20" width="25" height="27" as="geometry">
                        <mxRectangle width="25" height="27" as="alternateBounds"/>
                    </mxGeometry>
                </mxCell>
                <mxCell id="412" value="23:30" style="shape=partialRectangle;html=1;whiteSpace=wrap;connectable=0;fillColor=#dae8fc;top=0;left=0;bottom=0;right=0;overflow=hidden;pointerEvents=1;fontSize=7;strokeColor=#6c8ebf;opacity=50;" parent="401" vertex="1">
                    <mxGeometry x="45" width="30" height="27" as="geometry">
                        <mxRectangle width="30" height="27" as="alternateBounds"/>
                    </mxGeometry>
                </mxCell>
                <mxCell id="403" value="8:50" style="shape=partialRectangle;html=1;whiteSpace=wrap;connectable=0;fillColor=none;top=0;left=0;bottom=0;right=0;overflow=hidden;pointerEvents=1;fontSize=7;" parent="401" vertex="1">
                    <mxGeometry x="75" width="30" height="27" as="geometry">
                        <mxRectangle width="30" height="27" as="alternateBounds"/>
                    </mxGeometry>
                </mxCell>
                <mxCell id="424" value="23:35" style="shape=partialRectangle;html=1;whiteSpace=wrap;connectable=0;fillColor=#dae8fc;top=0;left=0;bottom=0;right=0;overflow=hidden;pointerEvents=1;fontSize=7;opacity=50;strokeColor=#6c8ebf;" parent="401" vertex="1">
                    <mxGeometry x="105" width="30" height="27" as="geometry">
                        <mxRectangle width="30" height="27" as="alternateBounds"/>
                    </mxGeometry>
                </mxCell>
                <mxCell id="420" value="5:30" style="shape=partialRectangle;html=1;whiteSpace=wrap;connectable=0;fillColor=none;top=0;left=0;bottom=0;right=0;overflow=hidden;pointerEvents=1;fontSize=7;" parent="401" vertex="1">
                    <mxGeometry x="135" width="58" height="27" as="geometry">
                        <mxRectangle width="58" height="27" as="alternateBounds"/>
                    </mxGeometry>
                </mxCell>
                <mxCell id="416" value="1:30" style="shape=partialRectangle;html=1;whiteSpace=wrap;connectable=0;fillColor=none;top=0;left=0;bottom=0;right=0;overflow=hidden;pointerEvents=1;fontSize=7;" parent="401" vertex="1">
                    <mxGeometry x="193" width="57" height="27" as="geometry">
                        <mxRectangle width="57" height="27" as="alternateBounds"/>
                    </mxGeometry>
                </mxCell>
                <mxCell id="404" value="修正" style="shape=partialRectangle;html=1;whiteSpace=wrap;connectable=0;fillColor=none;top=0;left=0;bottom=0;right=0;overflow=hidden;pointerEvents=1;fontSize=7;" parent="401" vertex="1">
                    <mxGeometry x="250" width="20" height="27" as="geometry">
                        <mxRectangle width="20" height="27" as="alternateBounds"/>
                    </mxGeometry>
                </mxCell>
                <mxCell id="393" value="" style="shape=partialRectangle;html=1;whiteSpace=wrap;collapsible=0;dropTarget=0;pointerEvents=0;fillColor=none;top=0;left=0;bottom=0;right=0;points=[[0,0.5],[1,0.5]];portConstraint=eastwest;fontSize=7;opacity=90;" parent="388" vertex="1">
                    <mxGeometry y="85" width="270" height="28" as="geometry"/>
                </mxCell>
                <mxCell id="407" value="2日" style="shape=partialRectangle;html=1;whiteSpace=wrap;connectable=0;fillColor=none;top=0;left=0;bottom=0;right=0;overflow=hidden;pointerEvents=1;fontSize=7;" parent="393" vertex="1">
                    <mxGeometry width="20" height="28" as="geometry">
                        <mxRectangle width="20" height="28" as="alternateBounds"/>
                    </mxGeometry>
                </mxCell>
                <mxCell id="394" value="8:48" style="shape=partialRectangle;html=1;whiteSpace=wrap;connectable=0;fillColor=none;top=0;left=0;bottom=0;right=0;overflow=hidden;pointerEvents=1;fontSize=7;" parent="393" vertex="1">
                    <mxGeometry x="20" width="25" height="28" as="geometry">
                        <mxRectangle width="25" height="28" as="alternateBounds"/>
                    </mxGeometry>
                </mxCell>
                <mxCell id="413" value="19:20" style="shape=partialRectangle;html=1;whiteSpace=wrap;connectable=0;fillColor=#f8cecc;top=0;left=0;bottom=0;right=0;overflow=hidden;pointerEvents=1;fontSize=7;strokeColor=#b85450;opacity=50;" parent="393" vertex="1">
                    <mxGeometry x="45" width="30" height="28" as="geometry">
                        <mxRectangle width="30" height="28" as="alternateBounds"/>
                    </mxGeometry>
                </mxCell>
                <mxCell id="395" value="8:45" style="shape=partialRectangle;html=1;whiteSpace=wrap;connectable=0;fillColor=none;top=0;left=0;bottom=0;right=0;overflow=hidden;pointerEvents=1;fontSize=7;" parent="393" vertex="1">
                    <mxGeometry x="75" width="30" height="28" as="geometry">
                        <mxRectangle width="30" height="28" as="alternateBounds"/>
                    </mxGeometry>
                </mxCell>
                <mxCell id="425" value="22:00" style="shape=partialRectangle;html=1;whiteSpace=wrap;connectable=0;fillColor=#F8CECC;top=0;left=0;bottom=0;right=0;overflow=hidden;pointerEvents=1;fontSize=7;strokeColor=#b85450;opacity=50;" parent="393" vertex="1">
                    <mxGeometry x="105" width="30" height="28" as="geometry">
                        <mxRectangle width="30" height="28" as="alternateBounds"/>
                    </mxGeometry>
                </mxCell>
                <mxCell id="421" value="1:20" style="shape=partialRectangle;html=1;whiteSpace=wrap;connectable=0;fillColor=none;top=0;left=0;bottom=0;right=0;overflow=hidden;pointerEvents=1;fontSize=7;" parent="393" vertex="1">
                    <mxGeometry x="135" width="58" height="28" as="geometry">
                        <mxRectangle width="58" height="28" as="alternateBounds"/>
                    </mxGeometry>
                </mxCell>
                <mxCell id="417" value="0" style="shape=partialRectangle;html=1;whiteSpace=wrap;connectable=0;fillColor=none;top=0;left=0;bottom=0;right=0;overflow=hidden;pointerEvents=1;fontSize=7;" parent="393" vertex="1">
                    <mxGeometry x="193" width="57" height="28" as="geometry">
                        <mxRectangle width="57" height="28" as="alternateBounds"/>
                    </mxGeometry>
                </mxCell>
                <mxCell id="396" value="修正" style="shape=partialRectangle;html=1;whiteSpace=wrap;connectable=0;fillColor=none;top=0;left=0;bottom=0;right=0;overflow=hidden;pointerEvents=1;fontSize=7;" parent="393" vertex="1">
                    <mxGeometry x="250" width="20" height="28" as="geometry">
                        <mxRectangle width="20" height="28" as="alternateBounds"/>
                    </mxGeometry>
                </mxCell>
                <mxCell id="397" value="" style="shape=partialRectangle;html=1;whiteSpace=wrap;collapsible=0;dropTarget=0;pointerEvents=0;fillColor=none;top=0;left=0;bottom=0;right=0;points=[[0,0.5],[1,0.5]];portConstraint=eastwest;fontSize=7;" parent="388" vertex="1">
                    <mxGeometry y="113" width="270" height="27" as="geometry"/>
                </mxCell>
                <mxCell id="408" value="〇〇" style="shape=partialRectangle;html=1;whiteSpace=wrap;connectable=0;fillColor=none;top=0;left=0;bottom=0;right=0;overflow=hidden;pointerEvents=1;fontSize=7;" parent="397" vertex="1">
                    <mxGeometry width="20" height="27" as="geometry">
                        <mxRectangle width="20" height="27" as="alternateBounds"/>
                    </mxGeometry>
                </mxCell>
                <mxCell id="398" value="〇〇" style="shape=partialRectangle;html=1;whiteSpace=wrap;connectable=0;fillColor=none;top=0;left=0;bottom=0;right=0;overflow=hidden;pointerEvents=1;fontSize=7;" parent="397" vertex="1">
                    <mxGeometry x="20" width="25" height="27" as="geometry">
                        <mxRectangle width="25" height="27" as="alternateBounds"/>
                    </mxGeometry>
                </mxCell>
                <mxCell id="414" value="〇〇" style="shape=partialRectangle;html=1;whiteSpace=wrap;connectable=0;fillColor=none;top=0;left=0;bottom=0;right=0;overflow=hidden;pointerEvents=1;fontSize=7;" parent="397" vertex="1">
                    <mxGeometry x="45" width="30" height="27" as="geometry">
                        <mxRectangle width="30" height="27" as="alternateBounds"/>
                    </mxGeometry>
                </mxCell>
                <mxCell id="399" value="〇〇" style="shape=partialRectangle;html=1;whiteSpace=wrap;connectable=0;fillColor=none;top=0;left=0;bottom=0;right=0;overflow=hidden;pointerEvents=1;fontSize=7;" parent="397" vertex="1">
                    <mxGeometry x="75" width="30" height="27" as="geometry">
                        <mxRectangle width="30" height="27" as="alternateBounds"/>
                    </mxGeometry>
                </mxCell>
                <mxCell id="426" value="〇〇" style="shape=partialRectangle;html=1;whiteSpace=wrap;connectable=0;fillColor=none;top=0;left=0;bottom=0;right=0;overflow=hidden;pointerEvents=1;fontSize=7;" parent="397" vertex="1">
                    <mxGeometry x="105" width="30" height="27" as="geometry">
                        <mxRectangle width="30" height="27" as="alternateBounds"/>
                    </mxGeometry>
                </mxCell>
                <mxCell id="422" value="〇〇" style="shape=partialRectangle;html=1;whiteSpace=wrap;connectable=0;fillColor=none;top=0;left=0;bottom=0;right=0;overflow=hidden;pointerEvents=1;fontSize=7;" parent="397" vertex="1">
                    <mxGeometry x="135" width="58" height="27" as="geometry">
                        <mxRectangle width="58" height="27" as="alternateBounds"/>
                    </mxGeometry>
                </mxCell>
                <mxCell id="418" value="〇〇" style="shape=partialRectangle;html=1;whiteSpace=wrap;connectable=0;fillColor=none;top=0;left=0;bottom=0;right=0;overflow=hidden;pointerEvents=1;fontSize=7;" parent="397" vertex="1">
                    <mxGeometry x="193" width="57" height="27" as="geometry">
                        <mxRectangle width="57" height="27" as="alternateBounds"/>
                    </mxGeometry>
                </mxCell>
                <mxCell id="400" value="〇〇" style="shape=partialRectangle;html=1;whiteSpace=wrap;connectable=0;fillColor=none;top=0;left=0;bottom=0;right=0;overflow=hidden;pointerEvents=1;fontSize=7;" parent="397" vertex="1">
                    <mxGeometry x="250" width="20" height="27" as="geometry">
                        <mxRectangle width="20" height="27" as="alternateBounds"/>
                    </mxGeometry>
                </mxCell>
                <mxCell id="409" value="出勤&lt;span style=&quot;color: rgba(0 , 0 , 0 , 0) ; font-family: monospace ; font-size: 0px&quot;&gt;%3CmxGraphModel%3E%3Croot%3E%3CmxCell%20id%3D%220%22%2F%3E%3CmxCell%20id%3D%221%22%20parent%3D%220%22%2F%3E%3CmxCell%20id%3D%222%22%20value%3D%22%22%20style%3D%22rounded%3D1%3BwhiteSpace%3Dwrap%3Bhtml%3D1%3BfontSize%3D10%3B%22%20vertex%3D%221%22%20parent%3D%221%22%3E%3CmxGeometry%20x%3D%221665%22%20y%3D%22126%22%20width%3D%2285%22%20height%3D%2210%22%20as%3D%22geometry%22%2F%3E%3C%2FmxCell%3E%3CmxCell%20id%3D%223%22%20value%3D%22%E5%90%8D%E5%89%8D%22%20style%3D%22text%3Bhtml%3D1%3Bresizable%3D0%3Bautosize%3D1%3Balign%3Dcenter%3BverticalAlign%3Dmiddle%3Bpoints%3D%5B%5D%3BfillColor%3Dnone%3BstrokeColor%3Dnone%3Brounded%3D0%3BfontSize%3D10%3B%22%20vertex%3D%221%22%20parent%3D%221%22%3E%3CmxGeometry%20x%3D%221650%22%20y%3D%22110%22%20width%3D%2240%22%20height%3D%2220%22%20as%3D%22geometry%22%2F%3E%3C%2FmxCell%3E%3C%2Froot%3E%3C%2FmxGraphModel%3E&lt;/span&gt;&lt;span style=&quot;color: rgba(0 , 0 , 0 , 0) ; font-family: monospace ; font-size: 0px&quot;&gt;%3CmxGraphModel%3E%3Croot%3E%3CmxCell%20id%3D%220%22%2F%3E%3CmxCell%20id%3D%221%22%20parent%3D%220%22%2F%3E%3CmxCell%20id%3D%222%22%20value%3D%22%22%20style%3D%22rounded%3D1%3BwhiteSpace%3Dwrap%3Bhtml%3D1%3BfontSize%3D10%3B%22%20vertex%3D%221%22%20parent%3D%221%22%3E%3CmxGeometry%20x%3D%221665%22%20y%3D%22126%22%20width%3D%2285%22%20height%3D%2210%22%20as%3D%22geometry%22%2F%3E%3C%2FmxCell%3E%3CmxCell%20id%3D%223%22%20value%3D%22%E5%90%8D%E5%89%8D%22%20style%3D%22text%3Bhtml%3D1%3Bresizable%3D0%3Bautosize%3D1%3Balign%3Dcenter%3BverticalAlign%3Dmiddle%3Bpoints%3D%5B%5D%3BfillColor%3Dnone%3BstrokeColor%3Dnone%3Brounded%3D0%3BfontSize%3D10%3B%22%20vertex%3D%221%22%20parent%3D%221%22%3E%3CmxGeometry%20x%3D%221650%22%20y%3D%22110%22%20width%3D%2240%22%20height%3D%2220%22%20as%3D%22geometry%22%2F%3E%3C%2FmxCell%3E%3C%2Froot%3E%3C%2FmxGraphModel%3E&lt;/span&gt;" style="ellipse;shape=doubleEllipse;whiteSpace=wrap;html=1;fontSize=7;" parent="1" vertex="1">
                    <mxGeometry x="460" y="560" width="50" height="30" as="geometry"/>
                </mxCell>
                <mxCell id="410" value="退勤" style="ellipse;shape=doubleEllipse;whiteSpace=wrap;html=1;fontSize=7;" parent="1" vertex="1">
                    <mxGeometry x="545" y="560" width="55" height="30" as="geometry"/>
                </mxCell>
                <mxCell id="427" value="" style="shape=table;html=1;whiteSpace=wrap;startSize=0;container=1;collapsible=0;childLayout=tableLayout;columnLines=0;rowLines=0;fontSize=7;" parent="1" vertex="1">
                    <mxGeometry x="403" y="595" width="267" height="27" as="geometry"/>
                </mxCell>
                <mxCell id="428" value="" style="shape=partialRectangle;html=1;whiteSpace=wrap;collapsible=0;dropTarget=0;pointerEvents=0;fillColor=none;top=0;left=0;bottom=0;right=0;points=[[0,0.5],[1,0.5]];portConstraint=eastwest;fontSize=7;" parent="427" vertex="1">
                    <mxGeometry width="267" height="13" as="geometry"/>
                </mxCell>
                <mxCell id="429" value="労働時間合計" style="shape=partialRectangle;html=1;whiteSpace=wrap;connectable=0;fillColor=none;top=0;left=0;bottom=0;right=0;overflow=hidden;pointerEvents=1;fontSize=7;" parent="428" vertex="1">
                    <mxGeometry width="45" height="13" as="geometry">
                        <mxRectangle width="45" height="13" as="alternateBounds"/>
                    </mxGeometry>
                </mxCell>
                <mxCell id="430" value="残業時間" style="shape=partialRectangle;html=1;whiteSpace=wrap;connectable=0;fillColor=none;top=0;left=0;bottom=0;right=0;overflow=hidden;pointerEvents=1;fontSize=7;" parent="428" vertex="1">
                    <mxGeometry x="45" width="44" height="13" as="geometry">
                        <mxRectangle width="44" height="13" as="alternateBounds"/>
                    </mxGeometry>
                </mxCell>
                <mxCell id="431" value="深夜残業" style="shape=partialRectangle;html=1;whiteSpace=wrap;connectable=0;fillColor=none;top=0;left=0;bottom=0;right=0;overflow=hidden;pointerEvents=1;fontSize=7;" parent="428" vertex="1">
                    <mxGeometry x="89" width="45" height="13" as="geometry">
                        <mxRectangle width="45" height="13" as="alternateBounds"/>
                    </mxGeometry>
                </mxCell>
                <mxCell id="442" value="有給消化" style="shape=partialRectangle;html=1;whiteSpace=wrap;connectable=0;fillColor=none;top=0;left=0;bottom=0;right=0;overflow=hidden;pointerEvents=1;fontSize=7;" parent="428" vertex="1">
                    <mxGeometry x="134" width="44" height="13" as="geometry">
                        <mxRectangle width="44" height="13" as="alternateBounds"/>
                    </mxGeometry>
                </mxCell>
                <mxCell id="440" value="休日出勤" style="shape=partialRectangle;html=1;whiteSpace=wrap;connectable=0;fillColor=none;top=0;left=0;bottom=0;right=0;overflow=hidden;pointerEvents=1;fontSize=7;" parent="428" vertex="1">
                    <mxGeometry x="178" width="45" height="13" as="geometry">
                        <mxRectangle width="45" height="13" as="alternateBounds"/>
                    </mxGeometry>
                </mxCell>
                <mxCell id="459" style="shape=partialRectangle;html=1;whiteSpace=wrap;connectable=0;fillColor=none;top=0;left=0;bottom=0;right=0;overflow=hidden;pointerEvents=1;fontSize=7;" parent="428" vertex="1">
                    <mxGeometry x="223" width="44" height="13" as="geometry">
                        <mxRectangle width="44" height="13" as="alternateBounds"/>
                    </mxGeometry>
                </mxCell>
                <mxCell id="432" value="" style="shape=partialRectangle;html=1;whiteSpace=wrap;collapsible=0;dropTarget=0;pointerEvents=0;fillColor=none;top=0;left=0;bottom=0;right=0;points=[[0,0.5],[1,0.5]];portConstraint=eastwest;fontSize=7;" parent="427" vertex="1">
                    <mxGeometry y="13" width="267" height="14" as="geometry"/>
                </mxCell>
                <mxCell id="433" value="〇〇" style="shape=partialRectangle;html=1;whiteSpace=wrap;connectable=0;fillColor=none;top=0;left=0;bottom=0;right=0;overflow=hidden;pointerEvents=1;fontSize=7;" parent="432" vertex="1">
                    <mxGeometry width="45" height="14" as="geometry">
                        <mxRectangle width="45" height="14" as="alternateBounds"/>
                    </mxGeometry>
                </mxCell>
                <mxCell id="434" value="〇〇" style="shape=partialRectangle;html=1;whiteSpace=wrap;connectable=0;fillColor=none;top=0;left=0;bottom=0;right=0;overflow=hidden;pointerEvents=1;fontSize=7;" parent="432" vertex="1">
                    <mxGeometry x="45" width="44" height="14" as="geometry">
                        <mxRectangle width="44" height="14" as="alternateBounds"/>
                    </mxGeometry>
                </mxCell>
                <mxCell id="435" value="〇〇" style="shape=partialRectangle;html=1;whiteSpace=wrap;connectable=0;fillColor=none;top=0;left=0;bottom=0;right=0;overflow=hidden;pointerEvents=1;fontSize=7;" parent="432" vertex="1">
                    <mxGeometry x="89" width="45" height="14" as="geometry">
                        <mxRectangle width="45" height="14" as="alternateBounds"/>
                    </mxGeometry>
                </mxCell>
                <mxCell id="443" value="1" style="shape=partialRectangle;html=1;whiteSpace=wrap;connectable=0;fillColor=none;top=0;left=0;bottom=0;right=0;overflow=hidden;pointerEvents=1;fontSize=7;" parent="432" vertex="1">
                    <mxGeometry x="134" width="44" height="14" as="geometry">
                        <mxRectangle width="44" height="14" as="alternateBounds"/>
                    </mxGeometry>
                </mxCell>
                <mxCell id="441" value="1" style="shape=partialRectangle;html=1;whiteSpace=wrap;connectable=0;fillColor=none;top=0;left=0;bottom=0;right=0;overflow=hidden;pointerEvents=1;fontSize=7;" parent="432" vertex="1">
                    <mxGeometry x="178" width="45" height="14" as="geometry">
                        <mxRectangle width="45" height="14" as="alternateBounds"/>
                    </mxGeometry>
                </mxCell>
                <mxCell id="460" style="shape=partialRectangle;html=1;whiteSpace=wrap;connectable=0;fillColor=none;top=0;left=0;bottom=0;right=0;overflow=hidden;pointerEvents=1;fontSize=7;" parent="432" vertex="1">
                    <mxGeometry x="223" width="44" height="14" as="geometry">
                        <mxRectangle width="44" height="14" as="alternateBounds"/>
                    </mxGeometry>
                </mxCell>
                <mxCell id="445" value="4月2日" style="text;html=1;resizable=0;autosize=1;align=center;verticalAlign=middle;points=[];fillColor=none;strokeColor=none;rounded=0;fontSize=7;opacity=50;" parent="1" vertex="1">
                    <mxGeometry x="900" y="575" width="40" height="10" as="geometry"/>
                </mxCell>
                <mxCell id="446" value="出勤" style="text;html=1;resizable=0;autosize=1;align=center;verticalAlign=middle;points=[];fillColor=none;strokeColor=none;rounded=0;fontSize=7;opacity=50;" parent="1" vertex="1">
                    <mxGeometry x="860" y="590" width="30" height="10" as="geometry"/>
                </mxCell>
                <mxCell id="449" value="23:00" style="rounded=1;whiteSpace=wrap;html=1;fontSize=7;" parent="1" vertex="1">
                    <mxGeometry x="860" y="655" width="120" height="25" as="geometry"/>
                </mxCell>
                <mxCell id="450" value="退勤" style="text;html=1;resizable=0;autosize=1;align=center;verticalAlign=middle;points=[];fillColor=none;strokeColor=none;rounded=0;fontSize=7;opacity=50;" parent="1" vertex="1">
                    <mxGeometry x="860" y="645" width="30" height="10" as="geometry"/>
                </mxCell>
                <mxCell id="453" value="" style="line;strokeWidth=4;html=1;perimeter=backbonePerimeter;points=[];outlineConnect=0;fontSize=7;fillColor=#F8CECC;opacity=50;" parent="1" vertex="1">
                    <mxGeometry x="1185" y="635" width="235" height="10" as="geometry"/>
                </mxCell>
                <mxCell id="454" value="&lt;font style=&quot;font-size: 9px&quot;&gt;有給処理待ち一覧&lt;/font&gt;" style="text;html=1;resizable=0;autosize=1;align=center;verticalAlign=middle;points=[];fillColor=none;strokeColor=none;rounded=0;fontSize=7;opacity=50;" parent="1" vertex="1">
                    <mxGeometry x="1170" y="645" width="90" height="10" as="geometry"/>
                </mxCell>
                <mxCell id="455" value="&lt;font size=&quot;1&quot;&gt;2022/05/20&lt;/font&gt;" style="text;html=1;resizable=0;autosize=1;align=center;verticalAlign=middle;points=[];fillColor=none;strokeColor=none;rounded=0;fontSize=7;opacity=50;" parent="1" vertex="1">
                    <mxGeometry x="1250" y="662.5" width="70" height="10" as="geometry"/>
                </mxCell>
                <mxCell id="456" value="&lt;font style=&quot;font-size: 9px&quot;&gt;田中太郎&lt;/font&gt;" style="text;html=1;resizable=0;autosize=1;align=center;verticalAlign=middle;points=[];fillColor=none;strokeColor=none;rounded=0;fontSize=7;opacity=50;" parent="1" vertex="1">
                    <mxGeometry x="1185" y="663" width="50" height="10" as="geometry"/>
                </mxCell>
                <mxCell id="457" value="&lt;font style=&quot;font-size: 9px&quot;&gt;承認&lt;/font&gt;" style="text;html=1;resizable=0;autosize=1;align=center;verticalAlign=middle;points=[];fillColor=none;strokeColor=none;rounded=0;fontSize=7;opacity=50;" parent="1" vertex="1">
                    <mxGeometry x="1340" y="662.5" width="30" height="10" as="geometry"/>
                </mxCell>
                <mxCell id="458" value="&lt;font style=&quot;font-size: 9px&quot;&gt;差し戻し&lt;/font&gt;" style="text;html=1;resizable=0;autosize=1;align=center;verticalAlign=middle;points=[];fillColor=none;strokeColor=none;rounded=0;fontSize=7;opacity=50;" parent="1" vertex="1">
                    <mxGeometry x="1370" y="662.5" width="50" height="10" as="geometry"/>
                </mxCell>
                <mxCell id="463" value="締め&lt;br&gt;確認" style="ellipse;whiteSpace=wrap;html=1;aspect=fixed;fontSize=9;opacity=50;" parent="1" vertex="1">
                    <mxGeometry x="630" y="595" width="28.5" height="28.5" as="geometry"/>
                </mxCell>
                <mxCell id="464" value="CSVファイルを選択" style="rounded=1;whiteSpace=wrap;html=1;fontSize=9;opacity=50;" parent="1" vertex="1">
                    <mxGeometry x="410" y="623.5" width="90" height="10" as="geometry"/>
                </mxCell>
                <mxCell id="465" value="&lt;font style=&quot;font-size: 7px&quot;&gt;インポート&lt;/font&gt;" style="rounded=1;whiteSpace=wrap;html=1;fontSize=9;opacity=50;" parent="1" vertex="1">
                    <mxGeometry x="610" y="624.5" width="42" height="10" as="geometry"/>
                </mxCell>
                <mxCell id="466" value="PCログアップロード" style="text;html=1;resizable=0;autosize=1;align=center;verticalAlign=middle;points=[];fillColor=none;strokeColor=none;rounded=0;fontSize=7;opacity=50;" parent="1" vertex="1">
                    <mxGeometry x="510" y="624.5" width="80" height="10" as="geometry"/>
                </mxCell>
                <mxCell id="467" value="" style="whiteSpace=wrap;html=1;aspect=fixed;fontSize=26;" vertex="1" parent="1">
                    <mxGeometry x="1570" y="515" width="280" height="280" as="geometry"/>
                </mxCell>
                <mxCell id="468" value="&lt;font style=&quot;font-size: 10px&quot;&gt;© 2022 All Rights Reserved.&lt;/font&gt;" style="rounded=0;whiteSpace=wrap;html=1;fontSize=26;align=center;" vertex="1" parent="1">
                    <mxGeometry x="1570" y="775" width="280" height="20" as="geometry"/>
                </mxCell>
                <mxCell id="469" value="&lt;span style=&quot;font-size: 26px&quot;&gt;・有給申請画面&lt;br&gt;（general）&lt;br&gt;&lt;/span&gt;" style="text;html=1;resizable=0;autosize=1;align=center;verticalAlign=middle;points=[];fillColor=none;strokeColor=none;rounded=0;" vertex="1" parent="1">
                    <mxGeometry x="1607.5" y="460" width="200" height="40" as="geometry"/>
                </mxCell>
                <mxCell id="470" value="" style="group" vertex="1" connectable="0" parent="1">
                    <mxGeometry x="1570" y="515" width="280" height="40" as="geometry"/>
                </mxCell>
                <mxCell id="471" value="" style="rounded=0;whiteSpace=wrap;html=1;fontSize=26;" vertex="1" parent="470">
                    <mxGeometry width="280" height="40" as="geometry"/>
                </mxCell>
                <mxCell id="472" value="&lt;div&gt;&lt;span style=&quot;font-size: x-small&quot;&gt;logo&lt;/span&gt;&lt;/div&gt;" style="ellipse;whiteSpace=wrap;html=1;fontSize=40;align=center;" vertex="1" parent="470">
                    <mxGeometry width="50" height="40" as="geometry"/>
                </mxCell>
                <mxCell id="473" value="&lt;font style=&quot;font-size: 7px&quot;&gt;申請・承認&lt;/font&gt;" style="rounded=1;whiteSpace=wrap;html=1;fontSize=15;" vertex="1" parent="470">
                    <mxGeometry x="150" y="10" width="40" height="20" as="geometry"/>
                </mxCell>
                <mxCell id="474" value="&lt;font style=&quot;font-size: 7px&quot;&gt;アカウント&lt;/font&gt;" style="rounded=1;whiteSpace=wrap;html=1;fontSize=15;" vertex="1" parent="470">
                    <mxGeometry x="190" y="10" width="40" height="20" as="geometry"/>
                </mxCell>
                <mxCell id="475" value="&lt;font style=&quot;font-size: 7px&quot;&gt;ログアウト&lt;/font&gt;" style="rounded=1;whiteSpace=wrap;html=1;fontSize=15;" vertex="1" parent="470">
                    <mxGeometry x="230" y="10" width="40" height="20" as="geometry"/>
                </mxCell>
                <mxCell id="476" value="&lt;font style=&quot;font-size: 6px&quot;&gt;TOP&lt;/font&gt;" style="rounded=1;whiteSpace=wrap;html=1;fontSize=15;" vertex="1" parent="470">
                    <mxGeometry x="110" y="10" width="40" height="20" as="geometry"/>
                </mxCell>
                <mxCell id="477" value="" style="whiteSpace=wrap;html=1;aspect=fixed;fontSize=26;" vertex="1" parent="1">
                    <mxGeometry x="1970" y="515" width="280" height="280" as="geometry"/>
                </mxCell>
                <mxCell id="478" value="&lt;font style=&quot;font-size: 10px&quot;&gt;© 2022 All Rights Reserved.&lt;/font&gt;" style="rounded=0;whiteSpace=wrap;html=1;fontSize=26;align=center;" vertex="1" parent="1">
                    <mxGeometry x="1970" y="775" width="280" height="20" as="geometry"/>
                </mxCell>
                <mxCell id="479" value="&lt;span style=&quot;font-size: 26px&quot;&gt;・締め一覧画面&lt;br&gt;（Admin）&lt;br&gt;&lt;/span&gt;" style="text;html=1;resizable=0;autosize=1;align=center;verticalAlign=middle;points=[];fillColor=none;strokeColor=none;rounded=0;" vertex="1" parent="1">
                    <mxGeometry x="2010" y="460" width="200" height="40" as="geometry"/>
                </mxCell>
                <mxCell id="480" value="" style="group" vertex="1" connectable="0" parent="1">
                    <mxGeometry x="1970" y="515" width="280" height="40" as="geometry"/>
                </mxCell>
                <mxCell id="481" value="" style="rounded=0;whiteSpace=wrap;html=1;fontSize=26;" vertex="1" parent="480">
                    <mxGeometry width="280" height="40" as="geometry"/>
                </mxCell>
                <mxCell id="482" value="&lt;div&gt;&lt;span style=&quot;font-size: x-small&quot;&gt;logo&lt;/span&gt;&lt;/div&gt;" style="ellipse;whiteSpace=wrap;html=1;fontSize=40;align=center;" vertex="1" parent="480">
                    <mxGeometry width="50" height="40" as="geometry"/>
                </mxCell>
                <mxCell id="483" value="&lt;font style=&quot;font-size: 7px&quot;&gt;申請・承認&lt;/font&gt;" style="rounded=1;whiteSpace=wrap;html=1;fontSize=15;" vertex="1" parent="480">
                    <mxGeometry x="150" y="10" width="40" height="20" as="geometry"/>
                </mxCell>
                <mxCell id="484" value="&lt;font style=&quot;font-size: 7px&quot;&gt;アカウント&lt;/font&gt;" style="rounded=1;whiteSpace=wrap;html=1;fontSize=15;" vertex="1" parent="480">
                    <mxGeometry x="190" y="10" width="40" height="20" as="geometry"/>
                </mxCell>
                <mxCell id="485" value="&lt;font style=&quot;font-size: 7px&quot;&gt;ログアウト&lt;/font&gt;" style="rounded=1;whiteSpace=wrap;html=1;fontSize=15;" vertex="1" parent="480">
                    <mxGeometry x="230" y="10" width="40" height="20" as="geometry"/>
                </mxCell>
                <mxCell id="486" value="&lt;font style=&quot;font-size: 6px&quot;&gt;TOP&lt;/font&gt;" style="rounded=1;whiteSpace=wrap;html=1;fontSize=15;" vertex="1" parent="480">
                    <mxGeometry x="110" y="10" width="40" height="20" as="geometry"/>
                </mxCell>
                <mxCell id="488" value="&lt;font style=&quot;font-size: 10px&quot;&gt;© 2022 All Rights Reserved.&lt;/font&gt;" style="rounded=0;whiteSpace=wrap;html=1;fontSize=26;align=center;" vertex="1" parent="1">
                    <mxGeometry x="1970" y="313" width="280" height="20" as="geometry"/>
                </mxCell>
                <mxCell id="489" value="&lt;span style=&quot;font-size: 26px&quot;&gt;・申請/承認選択画面&lt;/span&gt;" style="text;html=1;resizable=0;autosize=1;align=center;verticalAlign=middle;points=[];fillColor=none;strokeColor=none;rounded=0;" vertex="1" parent="1">
                    <mxGeometry x="1981" y="23" width="260" height="20" as="geometry"/>
                </mxCell>
                <mxCell id="490" value="" style="group" vertex="1" connectable="0" parent="1">
                    <mxGeometry x="1970" y="53" width="280" height="40" as="geometry"/>
                </mxCell>
                <mxCell id="491" value="" style="rounded=0;whiteSpace=wrap;html=1;fontSize=26;" vertex="1" parent="490">
                    <mxGeometry width="280" height="40" as="geometry"/>
                </mxCell>
                <mxCell id="492" value="&lt;div&gt;&lt;span style=&quot;font-size: x-small&quot;&gt;logo&lt;/span&gt;&lt;/div&gt;" style="ellipse;whiteSpace=wrap;html=1;fontSize=40;align=center;" vertex="1" parent="490">
                    <mxGeometry width="50" height="40" as="geometry"/>
                </mxCell>
                <mxCell id="493" value="&lt;font style=&quot;font-size: 7px&quot;&gt;申請・承認&lt;/font&gt;" style="rounded=1;whiteSpace=wrap;html=1;fontSize=15;" vertex="1" parent="490">
                    <mxGeometry x="150" y="10" width="40" height="20" as="geometry"/>
                </mxCell>
                <mxCell id="494" value="&lt;font style=&quot;font-size: 7px&quot;&gt;アカウント&lt;/font&gt;" style="rounded=1;whiteSpace=wrap;html=1;fontSize=15;" vertex="1" parent="490">
                    <mxGeometry x="190" y="10" width="40" height="20" as="geometry"/>
                </mxCell>
                <mxCell id="495" value="&lt;font style=&quot;font-size: 7px&quot;&gt;ログアウト&lt;/font&gt;" style="rounded=1;whiteSpace=wrap;html=1;fontSize=15;" vertex="1" parent="490">
                    <mxGeometry x="230" y="10" width="40" height="20" as="geometry"/>
                </mxCell>
                <mxCell id="496" value="&lt;font style=&quot;font-size: 6px&quot;&gt;TOP&lt;/font&gt;" style="rounded=1;whiteSpace=wrap;html=1;fontSize=15;" vertex="1" parent="490">
                    <mxGeometry x="110" y="10" width="40" height="20" as="geometry"/>
                </mxCell>
                <mxCell id="497" value="・有給申請&lt;br&gt;（全ロール）" style="text;html=1;resizable=0;autosize=1;align=center;verticalAlign=middle;points=[];fillColor=none;strokeColor=none;rounded=0;" vertex="1" parent="1">
                    <mxGeometry x="2055" y="112" width="90" height="30" as="geometry"/>
                </mxCell>
                <mxCell id="498" value="・有給承認&lt;br&gt;（superuser権限のみ）" style="text;html=1;resizable=0;autosize=1;align=center;verticalAlign=middle;points=[];fillColor=none;strokeColor=none;rounded=0;" vertex="1" parent="1">
                    <mxGeometry x="2030" y="154" width="140" height="30" as="geometry"/>
                </mxCell>
                <mxCell id="499" value="・月締め一覧&lt;br&gt;（Admin権限のみ）" style="text;html=1;resizable=0;autosize=1;align=center;verticalAlign=middle;points=[];fillColor=none;strokeColor=none;rounded=0;" vertex="1" parent="1">
                    <mxGeometry x="2051" y="209" width="120" height="30" as="geometry"/>
                </mxCell>
                <mxCell id="504" value="" style="rounded=1;whiteSpace=wrap;html=1;fontSize=4;" vertex="1" parent="1">
                    <mxGeometry x="1627.5" y="590" width="120" height="25" as="geometry"/>
                </mxCell>
                <mxCell id="505" value="&lt;font style=&quot;font-size: 7px&quot;&gt;申請&lt;/font&gt;" style="ellipse;whiteSpace=wrap;html=1;aspect=fixed;fontSize=4;" vertex="1" parent="1">
                    <mxGeometry x="1802.5" y="585" width="30" height="30" as="geometry"/>
                </mxCell>
                <mxCell id="506" value="有給申請日" style="text;html=1;resizable=0;autosize=1;align=center;verticalAlign=middle;points=[];fillColor=none;strokeColor=none;rounded=0;fontSize=7;" vertex="1" parent="1">
                    <mxGeometry x="1577.5" y="590" width="50" height="10" as="geometry"/>
                </mxCell>
                <mxCell id="507" value="" style="line;strokeWidth=4;html=1;perimeter=backbonePerimeter;points=[];outlineConnect=0;fontSize=7;fillColor=#F8CECC;opacity=50;" vertex="1" parent="1">
                    <mxGeometry x="1592.5" y="645" width="235" height="10" as="geometry"/>
                </mxCell>
                <mxCell id="508" value="&lt;font style=&quot;font-size: 9px&quot;&gt;有給承認済一覧&lt;/font&gt;" style="text;html=1;resizable=0;autosize=1;align=center;verticalAlign=middle;points=[];fillColor=none;strokeColor=none;rounded=0;fontSize=7;opacity=50;" vertex="1" parent="1">
                    <mxGeometry x="1582.5" y="655" width="80" height="10" as="geometry"/>
                </mxCell>
                <mxCell id="509" value="&lt;font size=&quot;1&quot;&gt;2022/05/20&lt;/font&gt;" style="text;html=1;resizable=0;autosize=1;align=center;verticalAlign=middle;points=[];fillColor=none;strokeColor=none;rounded=0;fontSize=7;opacity=50;" vertex="1" parent="1">
                    <mxGeometry x="1657.5" y="672.5" width="70" height="10" as="geometry"/>
                </mxCell>
                <mxCell id="510" value="&lt;font style=&quot;font-size: 9px&quot;&gt;佐藤一郎&lt;/font&gt;" style="text;html=1;resizable=0;autosize=1;align=center;verticalAlign=middle;points=[];fillColor=none;strokeColor=none;rounded=0;fontSize=7;opacity=50;" vertex="1" parent="1">
                    <mxGeometry x="1592.5" y="673" width="50" height="10" as="geometry"/>
                </mxCell>
                <mxCell id="511" value="&lt;span style=&quot;font-size: 9px&quot;&gt;承認済&lt;/span&gt;" style="text;html=1;resizable=0;autosize=1;align=center;verticalAlign=middle;points=[];fillColor=none;strokeColor=none;rounded=0;fontSize=7;opacity=50;" vertex="1" parent="1">
                    <mxGeometry x="1742.5" y="672.5" width="40" height="10" as="geometry"/>
                </mxCell>
                <mxCell id="513" value="" style="rounded=1;whiteSpace=wrap;html=1;fontSize=4;" vertex="1" parent="1">
                    <mxGeometry x="2031" y="595" width="120" height="25" as="geometry"/>
                </mxCell>
                <mxCell id="514" value="&lt;font style=&quot;font-size: 7px&quot;&gt;申請&lt;/font&gt;" style="ellipse;whiteSpace=wrap;html=1;aspect=fixed;fontSize=4;" vertex="1" parent="1">
                    <mxGeometry x="2206" y="590" width="30" height="30" as="geometry"/>
                </mxCell>
                <mxCell id="515" value="有給申請日" style="text;html=1;resizable=0;autosize=1;align=center;verticalAlign=middle;points=[];fillColor=none;strokeColor=none;rounded=0;fontSize=7;" vertex="1" parent="1">
                    <mxGeometry x="1981" y="595" width="50" height="10" as="geometry"/>
                </mxCell>
                <mxCell id="516" value="" style="line;strokeWidth=4;html=1;perimeter=backbonePerimeter;points=[];outlineConnect=0;fontSize=7;fillColor=#F8CECC;opacity=50;" vertex="1" parent="1">
                    <mxGeometry x="1996" y="650" width="235" height="10" as="geometry"/>
                </mxCell>
                <mxCell id="517" value="&lt;font style=&quot;font-size: 9px&quot;&gt;月締め一覧&lt;/font&gt;" style="text;html=1;resizable=0;autosize=1;align=center;verticalAlign=middle;points=[];fillColor=none;strokeColor=none;rounded=0;fontSize=7;opacity=50;" vertex="1" parent="1">
                    <mxGeometry x="1996" y="660" width="60" height="10" as="geometry"/>
                </mxCell>
                <mxCell id="518" value="&lt;font size=&quot;1&quot;&gt;2022/04/30&lt;/font&gt;" style="text;html=1;resizable=0;autosize=1;align=center;verticalAlign=middle;points=[];fillColor=none;strokeColor=none;rounded=0;fontSize=7;opacity=50;" vertex="1" parent="1">
                    <mxGeometry x="2081" y="677.5" width="70" height="10" as="geometry"/>
                </mxCell>
                <mxCell id="519" value="&lt;font style=&quot;font-size: 9px&quot;&gt;佐藤一郎&lt;/font&gt;" style="text;html=1;resizable=0;autosize=1;align=center;verticalAlign=middle;points=[];fillColor=none;strokeColor=none;rounded=0;fontSize=7;opacity=50;" vertex="1" parent="1">
                    <mxGeometry x="1996" y="678" width="50" height="10" as="geometry"/>
                </mxCell>
                <mxCell id="520" value="&lt;span style=&quot;font-size: 9px&quot;&gt;確認&lt;/span&gt;" style="text;html=1;resizable=0;autosize=1;align=center;verticalAlign=middle;points=[];fillColor=none;strokeColor=none;rounded=0;fontSize=7;opacity=50;" vertex="1" parent="1">
                    <mxGeometry x="2151" y="677.5" width="30" height="10" as="geometry"/>
                </mxCell>
                <mxCell id="521" value="&lt;font style=&quot;font-size: 9px&quot;&gt;4月&lt;/font&gt;" style="text;html=1;resizable=0;autosize=1;align=center;verticalAlign=middle;points=[];fillColor=none;strokeColor=none;rounded=0;fontSize=7;opacity=50;" vertex="1" parent="1">
                    <mxGeometry x="2046" y="677.5" width="30" height="10" as="geometry"/>
                </mxCell>
                <mxCell id="522" value="&lt;font size=&quot;1&quot;&gt;2022/04/30&lt;/font&gt;" style="text;html=1;resizable=0;autosize=1;align=center;verticalAlign=middle;points=[];fillColor=none;strokeColor=none;rounded=0;fontSize=7;opacity=50;" vertex="1" parent="1">
                    <mxGeometry x="2081" y="688" width="70" height="10" as="geometry"/>
                </mxCell>
                <mxCell id="523" value="&lt;font style=&quot;font-size: 9px&quot;&gt;佐藤二郎&lt;/font&gt;" style="text;html=1;resizable=0;autosize=1;align=center;verticalAlign=middle;points=[];fillColor=none;strokeColor=none;rounded=0;fontSize=7;opacity=50;" vertex="1" parent="1">
                    <mxGeometry x="1996" y="688.5" width="50" height="10" as="geometry"/>
                </mxCell>
                <mxCell id="524" value="&lt;span style=&quot;font-size: 9px&quot;&gt;確認&lt;/span&gt;" style="text;html=1;resizable=0;autosize=1;align=center;verticalAlign=middle;points=[];fillColor=none;strokeColor=none;rounded=0;fontSize=7;opacity=50;" vertex="1" parent="1">
                    <mxGeometry x="2151" y="688" width="30" height="10" as="geometry"/>
                </mxCell>
                <mxCell id="525" value="&lt;font style=&quot;font-size: 9px&quot;&gt;4月&lt;/font&gt;" style="text;html=1;resizable=0;autosize=1;align=center;verticalAlign=middle;points=[];fillColor=none;strokeColor=none;rounded=0;fontSize=7;opacity=50;" vertex="1" parent="1">
                    <mxGeometry x="2046" y="688" width="30" height="10" as="geometry"/>
                </mxCell>
                <mxCell id="526" value="&lt;font size=&quot;1&quot;&gt;2022/05/01&lt;/font&gt;" style="text;html=1;resizable=0;autosize=1;align=center;verticalAlign=middle;points=[];fillColor=none;strokeColor=none;rounded=0;fontSize=7;opacity=50;" vertex="1" parent="1">
                    <mxGeometry x="2081" y="699" width="70" height="10" as="geometry"/>
                </mxCell>
                <mxCell id="527" value="&lt;font style=&quot;font-size: 9px&quot;&gt;佐藤三郎&lt;/font&gt;" style="text;html=1;resizable=0;autosize=1;align=center;verticalAlign=middle;points=[];fillColor=none;strokeColor=none;rounded=0;fontSize=7;opacity=50;" vertex="1" parent="1">
                    <mxGeometry x="1996" y="699.5" width="50" height="10" as="geometry"/>
                </mxCell>
                <mxCell id="528" value="&lt;span style=&quot;font-size: 9px&quot;&gt;確認&lt;/span&gt;" style="text;html=1;resizable=0;autosize=1;align=center;verticalAlign=middle;points=[];fillColor=none;strokeColor=none;rounded=0;fontSize=7;opacity=50;" vertex="1" parent="1">
                    <mxGeometry x="2151" y="699" width="30" height="10" as="geometry"/>
                </mxCell>
                <mxCell id="529" value="&lt;font style=&quot;font-size: 9px&quot;&gt;4月&lt;/font&gt;" style="text;html=1;resizable=0;autosize=1;align=center;verticalAlign=middle;points=[];fillColor=none;strokeColor=none;rounded=0;fontSize=7;opacity=50;" vertex="1" parent="1">
                    <mxGeometry x="2046" y="699" width="30" height="10" as="geometry"/>
                </mxCell>
                <mxCell id="530" value="&lt;font size=&quot;1&quot;&gt;2022/05/02&lt;/font&gt;" style="text;html=1;resizable=0;autosize=1;align=center;verticalAlign=middle;points=[];fillColor=none;strokeColor=none;rounded=0;fontSize=7;opacity=50;" vertex="1" parent="1">
                    <mxGeometry x="2081" y="710" width="70" height="10" as="geometry"/>
                </mxCell>
                <mxCell id="531" value="&lt;font style=&quot;font-size: 9px&quot;&gt;佐藤四郎&lt;/font&gt;" style="text;html=1;resizable=0;autosize=1;align=center;verticalAlign=middle;points=[];fillColor=none;strokeColor=none;rounded=0;fontSize=7;opacity=50;" vertex="1" parent="1">
                    <mxGeometry x="1996" y="710.5" width="50" height="10" as="geometry"/>
                </mxCell>
                <mxCell id="532" value="&lt;span style=&quot;font-size: 9px&quot;&gt;確認&lt;/span&gt;" style="text;html=1;resizable=0;autosize=1;align=center;verticalAlign=middle;points=[];fillColor=none;strokeColor=none;rounded=0;fontSize=7;opacity=50;" vertex="1" parent="1">
                    <mxGeometry x="2151" y="710" width="30" height="10" as="geometry"/>
                </mxCell>
                <mxCell id="533" value="&lt;font style=&quot;font-size: 9px&quot;&gt;4月&lt;/font&gt;" style="text;html=1;resizable=0;autosize=1;align=center;verticalAlign=middle;points=[];fillColor=none;strokeColor=none;rounded=0;fontSize=7;opacity=50;" vertex="1" parent="1">
                    <mxGeometry x="2046" y="710" width="30" height="10" as="geometry"/>
                </mxCell>
                <mxCell id="544" value="" style="whiteSpace=wrap;html=1;aspect=fixed;fontSize=26;" vertex="1" parent="1">
                    <mxGeometry x="2338" y="515" width="280" height="280" as="geometry"/>
                </mxCell>
                <mxCell id="545" value="&lt;font style=&quot;font-size: 10px&quot;&gt;© 2022 All Rights Reserved.&lt;/font&gt;" style="rounded=0;whiteSpace=wrap;html=1;fontSize=26;align=center;" vertex="1" parent="1">
                    <mxGeometry x="2338" y="775" width="280" height="20" as="geometry"/>
                </mxCell>
                <mxCell id="546" value="&lt;span style=&quot;font-size: 26px&quot;&gt;・締め確認画面&lt;/span&gt;" style="text;html=1;resizable=0;autosize=1;align=center;verticalAlign=middle;points=[];fillColor=none;strokeColor=none;rounded=0;" vertex="1" parent="1">
                    <mxGeometry x="2379" y="485" width="200" height="20" as="geometry"/>
                </mxCell>
                <mxCell id="547" value="" style="group" vertex="1" connectable="0" parent="1">
                    <mxGeometry x="2338" y="515" width="280" height="40" as="geometry"/>
                </mxCell>
                <mxCell id="548" value="" style="rounded=0;whiteSpace=wrap;html=1;fontSize=26;" vertex="1" parent="547">
                    <mxGeometry width="280" height="40" as="geometry"/>
                </mxCell>
                <mxCell id="549" value="&lt;div&gt;&lt;span style=&quot;font-size: x-small&quot;&gt;logo&lt;/span&gt;&lt;/div&gt;" style="ellipse;whiteSpace=wrap;html=1;fontSize=40;align=center;" vertex="1" parent="547">
                    <mxGeometry width="50" height="40" as="geometry"/>
                </mxCell>
                <mxCell id="550" value="&lt;font style=&quot;font-size: 7px&quot;&gt;申請・承認&lt;/font&gt;" style="rounded=1;whiteSpace=wrap;html=1;fontSize=15;" vertex="1" parent="547">
                    <mxGeometry x="150" y="10" width="40" height="20" as="geometry"/>
                </mxCell>
                <mxCell id="551" value="&lt;font style=&quot;font-size: 7px&quot;&gt;アカウント&lt;/font&gt;" style="rounded=1;whiteSpace=wrap;html=1;fontSize=15;" vertex="1" parent="547">
                    <mxGeometry x="190" y="10" width="40" height="20" as="geometry"/>
                </mxCell>
                <mxCell id="552" value="&lt;font style=&quot;font-size: 7px&quot;&gt;ログアウト&lt;/font&gt;" style="rounded=1;whiteSpace=wrap;html=1;fontSize=15;" vertex="1" parent="547">
                    <mxGeometry x="230" y="10" width="40" height="20" as="geometry"/>
                </mxCell>
                <mxCell id="553" value="&lt;font style=&quot;font-size: 6px&quot;&gt;TOP&lt;/font&gt;" style="rounded=1;whiteSpace=wrap;html=1;fontSize=15;" vertex="1" parent="547">
                    <mxGeometry x="110" y="10" width="40" height="20" as="geometry"/>
                </mxCell>
                <mxCell id="554" value="" style="rounded=1;whiteSpace=wrap;html=1;" vertex="1" parent="1">
                    <mxGeometry x="2350" y="562" width="210" height="38" as="geometry"/>
                </mxCell>
                <mxCell id="555" value="佐藤一郎" style="text;html=1;resizable=0;autosize=1;align=center;verticalAlign=middle;points=[];fillColor=none;strokeColor=none;rounded=0;" vertex="1" parent="1">
                    <mxGeometry x="2350" y="571" width="60" height="20" as="geometry"/>
                </mxCell>
                <mxCell id="556" value="4月&lt;span style=&quot;color: rgba(0 , 0 , 0 , 0) ; font-family: monospace ; font-size: 0px&quot;&gt;%3CmxGraphModel%3E%3Croot%3E%3CmxCell%20id%3D%220%22%2F%3E%3CmxCell%20id%3D%221%22%20parent%3D%220%22%2F%3E%3CmxCell%20id%3D%222%22%20value%3D%22%E4%BD%90%E8%97%A4%E4%B8%80%E9%83%8E%22%20style%3D%22text%3Bhtml%3D1%3Bresizable%3D0%3Bautosize%3D1%3Balign%3Dcenter%3BverticalAlign%3Dmiddle%3Bpoints%3D%5B%5D%3BfillColor%3Dnone%3BstrokeColor%3Dnone%3Brounded%3D0%3B%22%20vertex%3D%221%22%20parent%3D%221%22%3E%3CmxGeometry%20x%3D%222350%22%20y%3D%22571%22%20width%3D%2260%22%20height%3D%2220%22%20as%3D%22geometry%22%2F%3E%3C%2FmxCell%3E%3C%2Froot%3E%3C%2FmxGraphModel%3E&lt;/span&gt;" style="text;html=1;resizable=0;autosize=1;align=center;verticalAlign=middle;points=[];fillColor=none;strokeColor=none;rounded=0;" vertex="1" parent="1">
                    <mxGeometry x="2425" y="571" width="30" height="20" as="geometry"/>
                </mxCell>
                <mxCell id="557" value="168:52&lt;span style=&quot;color: rgba(0 , 0 , 0 , 0) ; font-family: monospace ; font-size: 0px&quot;&gt;%3CmxGraphModel%3E%3Croot%3E%3CmxCell%20id%3D%220%22%2F%3E%3CmxCell%20id%3D%221%22%20parent%3D%220%22%2F%3E%3CmxCell%20id%3D%222%22%20value%3D%224%E6%9C%88%26lt%3Bspan%20style%3D%26quot%3Bcolor%3A%20rgba(0%20%2C%200%20%2C%200%20%2C%200)%20%3B%20font-family%3A%20monospace%20%3B%20font-size%3A%200px%26quot%3B%26gt%3B%253CmxGraphModel%253E%253Croot%253E%253CmxCell%2520id%253D%25220%2522%252F%253E%253CmxCell%2520id%253D%25221%2522%2520parent%253D%25220%2522%252F%253E%253CmxCell%2520id%253D%25222%2522%2520value%253D%2522%25E4%25BD%2590%25E8%2597%25A4%25E4%25B8%2580%25E9%2583%258E%2522%2520style%253D%2522text%253Bhtml%253D1%253Bresizable%253D0%253Bautosize%253D1%253Balign%253Dcenter%253BverticalAlign%253Dmiddle%253Bpoints%253D%255B%255D%253BfillColor%253Dnone%253BstrokeColor%253Dnone%253Brounded%253D0%253B%2522%2520vertex%253D%25221%2522%2520parent%253D%25221%2522%253E%253CmxGeometry%2520x%253D%25222350%2522%2520y%253D%2522571%2522%2520width%253D%252260%2522%2520height%253D%252220%2522%2520as%253D%2522geometry%2522%252F%253E%253C%252FmxCell%253E%253C%252Froot%253E%253C%252FmxGraphModel%253E%26lt%3B%2Fspan%26gt%3B%22%20style%3D%22text%3Bhtml%3D1%3Bresizable%3D0%3Bautosize%3D1%3Balign%3Dcenter%3BverticalAlign%3Dmiddle%3Bpoints%3D%5B%5D%3BfillColor%3Dnone%3BstrokeColor%3Dnone%3Brounded%3D0%3B%22%20vertex%3D%221%22%20parent%3D%221%22%3E%3CmxGeometry%20x%3D%222425%22%20y%3D%22571%22%20width%3D%2230%22%20height%3D%2220%22%20as%3D%22geometry%22%2F%3E%3C%2FmxCell%3E%3C%2Froot%3E%3C%2FmxGraphModel%3E&lt;/span&gt;" style="text;html=1;resizable=0;autosize=1;align=center;verticalAlign=middle;points=[];fillColor=none;strokeColor=none;rounded=0;" vertex="1" parent="1">
                    <mxGeometry x="2455" y="571" width="50" height="20" as="geometry"/>
                </mxCell>
                <mxCell id="558" value="8:52&lt;span style=&quot;color: rgba(0 , 0 , 0 , 0) ; font-family: monospace ; font-size: 0px&quot;&gt;%3CmxGraphModel%3E%3Croot%3E%3CmxCell%20id%3D%220%22%2F%3E%3CmxCell%20id%3D%221%22%20parent%3D%220%22%2F%3E%3CmxCell%20id%3D%222%22%20value%3D%224%E6%9C%88%26lt%3Bspan%20style%3D%26quot%3Bcolor%3A%20rgba(0%20%2C%200%20%2C%200%20%2C%200)%20%3B%20font-family%3A%20monospace%20%3B%20font-size%3A%200px%26quot%3B%26gt%3B%253CmxGraphModel%253E%253Croot%253E%253CmxCell%2520id%253D%25220%2522%252F%253E%253CmxCell%2520id%253D%25221%2522%2520parent%253D%25220%2522%252F%253E%253CmxCell%2520id%253D%25222%2522%2520value%253D%2522%25E4%25BD%2590%25E8%2597%25A4%25E4%25B8%2580%25E9%2583%258E%2522%2520style%253D%2522text%253Bhtml%253D1%253Bresizable%253D0%253Bautosize%253D1%253Balign%253Dcenter%253BverticalAlign%253Dmiddle%253Bpoints%253D%255B%255D%253BfillColor%253Dnone%253BstrokeColor%253Dnone%253Brounded%253D0%253B%2522%2520vertex%253D%25221%2522%2520parent%253D%25221%2522%253E%253CmxGeometry%2520x%253D%25222350%2522%2520y%253D%2522571%2522%2520width%253D%252260%2522%2520height%253D%252220%2522%2520as%253D%2522geometry%2522%252F%253E%253C%252FmxCell%253E%253C%252Froot%253E%253C%252FmxGraphModel%253E%26lt%3B%2Fspan%26gt%3B%22%20style%3D%22text%3Bhtml%3D1%3Bresizable%3D0%3Bautosize%3D1%3Balign%3Dcenter%3BverticalAlign%3Dmiddle%3Bpoints%3D%5B%5D%3BfillColor%3Dnone%3BstrokeColor%3Dnone%3Brounded%3D0%3B%22%20vertex%3D%221%22%20parent%3D%221%22%3E%3CmxGeometry%20x%3D%222425%22%20y%3D%22571%22%20width%3D%2230%22%20height%3D%2220%22%20as%3D%22geometry%22%2F%3E%3C%2FmxCell%3E%3C%2Froot%3E%3C%2FmxGraphModel%3E&lt;/span&gt;" style="text;html=1;resizable=0;autosize=1;align=center;verticalAlign=middle;points=[];fillColor=none;strokeColor=none;rounded=0;" vertex="1" parent="1">
                    <mxGeometry x="2510" y="571" width="40" height="20" as="geometry"/>
                </mxCell>
                <mxCell id="559" value="" style="shape=table;startSize=0;container=1;collapsible=0;childLayout=tableLayout;" vertex="1" parent="1">
                    <mxGeometry x="2343" y="609" width="270" height="165" as="geometry"/>
                </mxCell>
                <mxCell id="560" value="" style="shape=partialRectangle;collapsible=0;dropTarget=0;pointerEvents=0;fillColor=none;top=0;left=0;bottom=0;right=0;points=[[0,0.5],[1,0.5]];portConstraint=eastwest;" vertex="1" parent="559">
                    <mxGeometry width="270" height="41" as="geometry"/>
                </mxCell>
                <mxCell id="561" value="" style="shape=partialRectangle;html=1;whiteSpace=wrap;connectable=0;overflow=hidden;fillColor=none;top=0;left=0;bottom=0;right=0;pointerEvents=1;" vertex="1" parent="560">
                    <mxGeometry width="45" height="41" as="geometry">
                        <mxRectangle width="45" height="41" as="alternateBounds"/>
                    </mxGeometry>
                </mxCell>
                <mxCell id="562" value="出勤" style="shape=partialRectangle;html=1;whiteSpace=wrap;connectable=0;overflow=hidden;fillColor=none;top=0;left=0;bottom=0;right=0;pointerEvents=1;" vertex="1" parent="560">
                    <mxGeometry x="45" width="45" height="41" as="geometry">
                        <mxRectangle width="45" height="41" as="alternateBounds"/>
                    </mxGeometry>
                </mxCell>
                <mxCell id="563" value="退勤" style="shape=partialRectangle;html=1;whiteSpace=wrap;connectable=0;overflow=hidden;fillColor=none;top=0;left=0;bottom=0;right=0;pointerEvents=1;" vertex="1" parent="560">
                    <mxGeometry x="90" width="45" height="41" as="geometry">
                        <mxRectangle width="45" height="41" as="alternateBounds"/>
                    </mxGeometry>
                </mxCell>
                <mxCell id="564" value="労働時間" style="shape=partialRectangle;html=1;whiteSpace=wrap;connectable=0;overflow=hidden;fillColor=none;top=0;left=0;bottom=0;right=0;pointerEvents=1;" vertex="1" parent="560">
                    <mxGeometry x="135" width="45" height="41" as="geometry">
                        <mxRectangle width="45" height="41" as="alternateBounds"/>
                    </mxGeometry>
                </mxCell>
                <mxCell id="565" value="残業" style="shape=partialRectangle;html=1;whiteSpace=wrap;connectable=0;overflow=hidden;fillColor=none;top=0;left=0;bottom=0;right=0;pointerEvents=1;" vertex="1" parent="560">
                    <mxGeometry x="180" width="45" height="41" as="geometry">
                        <mxRectangle width="45" height="41" as="alternateBounds"/>
                    </mxGeometry>
                </mxCell>
                <mxCell id="566" value="深夜" style="shape=partialRectangle;html=1;whiteSpace=wrap;connectable=0;overflow=hidden;fillColor=none;top=0;left=0;bottom=0;right=0;pointerEvents=1;" vertex="1" parent="560">
                    <mxGeometry x="225" width="45" height="41" as="geometry">
                        <mxRectangle width="45" height="41" as="alternateBounds"/>
                    </mxGeometry>
                </mxCell>
                <mxCell id="567" value="" style="shape=partialRectangle;collapsible=0;dropTarget=0;pointerEvents=0;fillColor=none;top=0;left=0;bottom=0;right=0;points=[[0,0.5],[1,0.5]];portConstraint=eastwest;" vertex="1" parent="559">
                    <mxGeometry y="41" width="270" height="42" as="geometry"/>
                </mxCell>
                <mxCell id="568" value="1日" style="shape=partialRectangle;html=1;whiteSpace=wrap;connectable=0;overflow=hidden;fillColor=none;top=0;left=0;bottom=0;right=0;pointerEvents=1;" vertex="1" parent="567">
                    <mxGeometry width="45" height="42" as="geometry">
                        <mxRectangle width="45" height="42" as="alternateBounds"/>
                    </mxGeometry>
                </mxCell>
                <mxCell id="569" value="8:52" style="shape=partialRectangle;html=1;whiteSpace=wrap;connectable=0;overflow=hidden;fillColor=none;top=0;left=0;bottom=0;right=0;pointerEvents=1;" vertex="1" parent="567">
                    <mxGeometry x="45" width="45" height="42" as="geometry">
                        <mxRectangle width="45" height="42" as="alternateBounds"/>
                    </mxGeometry>
                </mxCell>
                <mxCell id="570" value="19:35" style="shape=partialRectangle;html=1;whiteSpace=wrap;connectable=0;overflow=hidden;fillColor=none;top=0;left=0;bottom=0;right=0;pointerEvents=1;" vertex="1" parent="567">
                    <mxGeometry x="90" width="45" height="42" as="geometry">
                        <mxRectangle width="45" height="42" as="alternateBounds"/>
                    </mxGeometry>
                </mxCell>
                <mxCell id="571" value="9:42" style="shape=partialRectangle;html=1;whiteSpace=wrap;connectable=0;overflow=hidden;fillColor=none;top=0;left=0;bottom=0;right=0;pointerEvents=1;" vertex="1" parent="567">
                    <mxGeometry x="135" width="45" height="42" as="geometry">
                        <mxRectangle width="45" height="42" as="alternateBounds"/>
                    </mxGeometry>
                </mxCell>
                <mxCell id="572" value="1:42" style="shape=partialRectangle;html=1;whiteSpace=wrap;connectable=0;overflow=hidden;fillColor=none;top=0;left=0;bottom=0;right=0;pointerEvents=1;" vertex="1" parent="567">
                    <mxGeometry x="180" width="45" height="42" as="geometry">
                        <mxRectangle width="45" height="42" as="alternateBounds"/>
                    </mxGeometry>
                </mxCell>
                <mxCell id="573" value="0:00" style="shape=partialRectangle;html=1;whiteSpace=wrap;connectable=0;overflow=hidden;fillColor=none;top=0;left=0;bottom=0;right=0;pointerEvents=1;" vertex="1" parent="567">
                    <mxGeometry x="225" width="45" height="42" as="geometry">
                        <mxRectangle width="45" height="42" as="alternateBounds"/>
                    </mxGeometry>
                </mxCell>
                <mxCell id="574" value="" style="shape=partialRectangle;collapsible=0;dropTarget=0;pointerEvents=0;fillColor=none;top=0;left=0;bottom=0;right=0;points=[[0,0.5],[1,0.5]];portConstraint=eastwest;" vertex="1" parent="559">
                    <mxGeometry y="83" width="270" height="41" as="geometry"/>
                </mxCell>
                <mxCell id="575" value="2日" style="shape=partialRectangle;html=1;whiteSpace=wrap;connectable=0;overflow=hidden;fillColor=none;top=0;left=0;bottom=0;right=0;pointerEvents=1;" vertex="1" parent="574">
                    <mxGeometry width="45" height="41" as="geometry">
                        <mxRectangle width="45" height="41" as="alternateBounds"/>
                    </mxGeometry>
                </mxCell>
                <mxCell id="576" value="○○" style="shape=partialRectangle;html=1;whiteSpace=wrap;connectable=0;overflow=hidden;fillColor=none;top=0;left=0;bottom=0;right=0;pointerEvents=1;" vertex="1" parent="574">
                    <mxGeometry x="45" width="45" height="41" as="geometry">
                        <mxRectangle width="45" height="41" as="alternateBounds"/>
                    </mxGeometry>
                </mxCell>
                <mxCell id="577" value="○○" style="shape=partialRectangle;html=1;whiteSpace=wrap;connectable=0;overflow=hidden;fillColor=none;top=0;left=0;bottom=0;right=0;pointerEvents=1;" vertex="1" parent="574">
                    <mxGeometry x="90" width="45" height="41" as="geometry">
                        <mxRectangle width="45" height="41" as="alternateBounds"/>
                    </mxGeometry>
                </mxCell>
                <mxCell id="578" value="○○" style="shape=partialRectangle;html=1;whiteSpace=wrap;connectable=0;overflow=hidden;fillColor=none;top=0;left=0;bottom=0;right=0;pointerEvents=1;" vertex="1" parent="574">
                    <mxGeometry x="135" width="45" height="41" as="geometry">
                        <mxRectangle width="45" height="41" as="alternateBounds"/>
                    </mxGeometry>
                </mxCell>
                <mxCell id="579" value="○○" style="shape=partialRectangle;html=1;whiteSpace=wrap;connectable=0;overflow=hidden;fillColor=none;top=0;left=0;bottom=0;right=0;pointerEvents=1;" vertex="1" parent="574">
                    <mxGeometry x="180" width="45" height="41" as="geometry">
                        <mxRectangle width="45" height="41" as="alternateBounds"/>
                    </mxGeometry>
                </mxCell>
                <mxCell id="580" value="○○" style="shape=partialRectangle;html=1;whiteSpace=wrap;connectable=0;overflow=hidden;fillColor=none;top=0;left=0;bottom=0;right=0;pointerEvents=1;" vertex="1" parent="574">
                    <mxGeometry x="225" width="45" height="41" as="geometry">
                        <mxRectangle width="45" height="41" as="alternateBounds"/>
                    </mxGeometry>
                </mxCell>
                <mxCell id="581" value="" style="shape=partialRectangle;collapsible=0;dropTarget=0;pointerEvents=0;fillColor=none;top=0;left=0;bottom=0;right=0;points=[[0,0.5],[1,0.5]];portConstraint=eastwest;" vertex="1" parent="559">
                    <mxGeometry y="124" width="270" height="41" as="geometry"/>
                </mxCell>
                <mxCell id="582" value="3日" style="shape=partialRectangle;html=1;whiteSpace=wrap;connectable=0;overflow=hidden;fillColor=none;top=0;left=0;bottom=0;right=0;pointerEvents=1;" vertex="1" parent="581">
                    <mxGeometry width="45" height="41" as="geometry">
                        <mxRectangle width="45" height="41" as="alternateBounds"/>
                    </mxGeometry>
                </mxCell>
                <mxCell id="583" value="△△" style="shape=partialRectangle;html=1;whiteSpace=wrap;connectable=0;overflow=hidden;fillColor=none;top=0;left=0;bottom=0;right=0;pointerEvents=1;" vertex="1" parent="581">
                    <mxGeometry x="45" width="45" height="41" as="geometry">
                        <mxRectangle width="45" height="41" as="alternateBounds"/>
                    </mxGeometry>
                </mxCell>
                <mxCell id="584" value="△△" style="shape=partialRectangle;html=1;whiteSpace=wrap;connectable=0;overflow=hidden;fillColor=none;top=0;left=0;bottom=0;right=0;pointerEvents=1;" vertex="1" parent="581">
                    <mxGeometry x="90" width="45" height="41" as="geometry">
                        <mxRectangle width="45" height="41" as="alternateBounds"/>
                    </mxGeometry>
                </mxCell>
                <mxCell id="585" value="△△" style="shape=partialRectangle;html=1;whiteSpace=wrap;connectable=0;overflow=hidden;fillColor=none;top=0;left=0;bottom=0;right=0;pointerEvents=1;" vertex="1" parent="581">
                    <mxGeometry x="135" width="45" height="41" as="geometry">
                        <mxRectangle width="45" height="41" as="alternateBounds"/>
                    </mxGeometry>
                </mxCell>
                <mxCell id="586" value="△△" style="shape=partialRectangle;html=1;whiteSpace=wrap;connectable=0;overflow=hidden;fillColor=none;top=0;left=0;bottom=0;right=0;pointerEvents=1;" vertex="1" parent="581">
                    <mxGeometry x="180" width="45" height="41" as="geometry">
                        <mxRectangle width="45" height="41" as="alternateBounds"/>
                    </mxGeometry>
                </mxCell>
                <mxCell id="587" value="△△" style="shape=partialRectangle;html=1;whiteSpace=wrap;connectable=0;overflow=hidden;fillColor=none;top=0;left=0;bottom=0;right=0;pointerEvents=1;" vertex="1" parent="581">
                    <mxGeometry x="225" width="45" height="41" as="geometry">
                        <mxRectangle width="45" height="41" as="alternateBounds"/>
                    </mxGeometry>
                </mxCell>
                <mxCell id="589" value="戻る" style="rounded=1;whiteSpace=wrap;html=1;" vertex="1" parent="1">
                    <mxGeometry x="2579" y="571" width="30" height="20" as="geometry"/>
                </mxCell>
            </root>
        </mxGraphModel>
    </diagram>
</mxfile>